<?xml version="1.0" encoding="utf-8"?>
<!-- Generator: Adobe Illustrator 23.0.6, SVG Export Plug-In . SVG Version: 6.00 Build 0)  -->
<svg version="1.1" id="Layer_1" xmlns="http://www.w3.org/2000/svg" xmlns:xlink="http://www.w3.org/1999/xlink" x="0px" y="0px"
	 viewBox="0 0 546 514.3" style="enable-background:new 0 0 546 514.3;" xml:space="preserve">
<style type="text/css">
	.st0{fill:#FFFFFF;stroke:#000000;stroke-width:2.4;}
	.st1{fill:url(#SVGID_1_);}
	.st2{fill:none;stroke:#999999;stroke-width:1.6;}
	.st3{fill:none;}
</style>
<path class="st0" d="M89.9,442.4v-404V442.4z"/>
<path class="st0" d="M493.3,442.4H89.9H493.3z"/>
<g>
	<path d="M175.4,466.4c0,0.6,0.2,1.1,0.4,1.5c0.5,0.7,1.3,1.1,2.5,1.1c0.5,0,1-0.1,1.4-0.2c0.8-0.3,1.3-0.8,1.3-1.6
		c0-0.6-0.2-1-0.5-1.3c-0.4-0.2-0.9-0.5-1.7-0.6l-1.4-0.3c-0.9-0.2-1.6-0.5-2-0.7c-0.7-0.4-1-1.1-1-2c0-1,0.3-1.8,1-2.4
		s1.6-0.9,2.8-0.9c1.1,0,2,0.3,2.8,0.8c0.8,0.5,1.2,1.4,1.2,2.6h-1.4c-0.1-0.6-0.2-1-0.4-1.3c-0.4-0.6-1.1-0.8-2.2-0.8
		c-0.8,0-1.4,0.2-1.8,0.5s-0.5,0.8-0.5,1.3c0,0.5,0.2,0.9,0.6,1.2c0.3,0.2,0.9,0.4,1.9,0.6l1.5,0.3c0.7,0.2,1.2,0.4,1.6,0.7
		c0.7,0.5,1,1.2,1,2.2c0,1.2-0.4,2-1.3,2.6s-1.8,0.8-2.9,0.8c-1.3,0-2.3-0.3-3.1-1c-0.7-0.7-1.1-1.6-1.1-2.8H175.4z"/>
	<path d="M185.6,462v5.2c0,0.4,0.1,0.7,0.2,1c0.2,0.5,0.7,0.7,1.3,0.7c0.9,0,1.5-0.4,1.8-1.2c0.2-0.4,0.3-1,0.3-1.8V462h1.3v7.8
		h-1.2l0-1.2c-0.2,0.3-0.4,0.5-0.6,0.8c-0.5,0.4-1.1,0.6-1.8,0.6c-1.1,0-1.8-0.4-2.2-1.1c-0.2-0.4-0.3-0.9-0.3-1.6V462H185.6z"/>
	<path d="M192.6,462h1.3v1.4c0.1-0.3,0.4-0.6,0.8-1c0.4-0.4,0.9-0.6,1.4-0.6c0,0,0.1,0,0.1,0s0.2,0,0.3,0v1.4c-0.1,0-0.2,0-0.2,0
		c-0.1,0-0.1,0-0.2,0c-0.7,0-1.2,0.2-1.5,0.6c-0.4,0.4-0.5,0.9-0.5,1.5v4.5h-1.3V462z"/>
	<path d="M198.2,459.6c0.3-0.4,0.9-0.7,1.8-0.7c0.1,0,0.2,0,0.3,0c0.1,0,0.2,0,0.3,0v1.2c-0.1,0-0.2,0-0.3,0c-0.1,0-0.1,0-0.2,0
		c-0.4,0-0.6,0.1-0.7,0.3c-0.1,0.2-0.1,0.7-0.1,1.6h1.3v1h-1.3v6.8h-1.3v-6.8h-1.1v-1h1.1v-1.2C197.9,460.2,198,459.8,198.2,459.6z"
		/>
	<path d="M205.9,465.1c0.3,0,0.5-0.2,0.6-0.4c0.1-0.1,0.1-0.3,0.1-0.5c0-0.5-0.2-0.8-0.5-1c-0.3-0.2-0.8-0.3-1.4-0.3
		c-0.7,0-1.2,0.2-1.5,0.6c-0.2,0.2-0.3,0.5-0.3,0.9h-1.2c0-1,0.3-1.6,0.9-2c0.6-0.4,1.3-0.6,2.1-0.6c0.9,0,1.7,0.2,2.2,0.5
		c0.6,0.4,0.9,0.9,0.9,1.6v4.5c0,0.1,0,0.2,0.1,0.3s0.2,0.1,0.4,0.1c0.1,0,0.1,0,0.2,0c0.1,0,0.2,0,0.2,0v1
		c-0.2,0.1-0.4,0.1-0.5,0.1s-0.3,0-0.4,0c-0.5,0-0.8-0.2-1-0.5c-0.1-0.2-0.2-0.4-0.2-0.7c-0.3,0.4-0.7,0.7-1.2,0.9
		c-0.5,0.3-1.1,0.4-1.7,0.4c-0.7,0-1.3-0.2-1.8-0.7c-0.5-0.4-0.7-1-0.7-1.7c0-0.7,0.2-1.3,0.7-1.7c0.5-0.4,1-0.6,1.8-0.7
		L205.9,465.1z M203.2,468.6c0.3,0.2,0.6,0.3,1,0.3c0.5,0,0.9-0.1,1.3-0.3c0.7-0.4,1.1-0.9,1.1-1.7v-1.1c-0.2,0.1-0.4,0.2-0.6,0.3
		c-0.3,0.1-0.5,0.1-0.7,0.1l-0.8,0.1c-0.5,0.1-0.8,0.2-1.1,0.3c-0.4,0.2-0.6,0.6-0.6,1.1C202.8,468.1,202.9,468.4,203.2,468.6z"/>
	<path d="M215.3,462.4c0.6,0.4,0.9,1.2,1,2.2H215c-0.1-0.5-0.3-0.9-0.5-1.2c-0.3-0.3-0.7-0.5-1.3-0.5c-0.8,0-1.4,0.4-1.8,1.2
		c-0.2,0.5-0.4,1.2-0.4,2c0,0.8,0.2,1.4,0.5,2s0.9,0.8,1.6,0.8c0.5,0,1-0.2,1.3-0.5c0.3-0.3,0.5-0.8,0.7-1.4h1.3
		c-0.1,1-0.5,1.8-1.1,2.3c-0.6,0.5-1.3,0.7-2.2,0.7c-1,0-1.8-0.4-2.5-1.1c-0.6-0.7-0.9-1.7-0.9-2.8c0-1.4,0.3-2.4,1-3.2
		c0.7-0.8,1.5-1.1,2.6-1.1C214,461.8,214.7,462,215.3,462.4z"/>
	<path d="M222.4,462.2c0.5,0.3,0.9,0.6,1.2,1c0.3,0.4,0.4,0.9,0.5,1.4c0.1,0.4,0.1,0.9,0.1,1.7h-5.7c0,0.8,0.2,1.4,0.6,1.9
		s0.9,0.7,1.6,0.7c0.7,0,1.2-0.2,1.6-0.7c0.2-0.3,0.4-0.6,0.5-0.9h1.3c0,0.3-0.1,0.6-0.3,1c-0.2,0.4-0.4,0.6-0.6,0.9
		c-0.4,0.4-0.9,0.7-1.5,0.8c-0.3,0.1-0.7,0.1-1.1,0.1c-1,0-1.8-0.4-2.5-1.1c-0.7-0.7-1-1.7-1-3c0-1.3,0.3-2.3,1-3.1s1.6-1.2,2.7-1.2
		C221.4,461.8,221.9,461.9,222.4,462.2z M222.9,465.3c-0.1-0.6-0.2-1-0.4-1.4c-0.4-0.6-1-1-1.8-1c-0.6,0-1.1,0.2-1.5,0.7
		c-0.4,0.4-0.6,1-0.6,1.7H222.9z"/>
	<path d="M237.8,459.1v1.3h-3.6v9.5h-1.5v-9.5h-3.6v-1.3H237.8z"/>
	<path d="M242.2,462.2c0.5,0.3,0.9,0.6,1.2,1c0.3,0.4,0.4,0.9,0.5,1.4c0.1,0.4,0.1,0.9,0.1,1.7h-5.7c0,0.8,0.2,1.4,0.6,1.9
		s0.9,0.7,1.6,0.7c0.7,0,1.2-0.2,1.6-0.7c0.2-0.3,0.4-0.6,0.5-0.9h1.3c0,0.3-0.1,0.6-0.3,1c-0.2,0.4-0.4,0.6-0.6,0.9
		c-0.4,0.4-0.9,0.7-1.5,0.8c-0.3,0.1-0.7,0.1-1.1,0.1c-1,0-1.8-0.4-2.5-1.1c-0.7-0.7-1-1.7-1-3c0-1.3,0.3-2.3,1-3.1s1.6-1.2,2.7-1.2
		C241.1,461.8,241.7,461.9,242.2,462.2z M242.6,465.3c-0.1-0.6-0.2-1-0.4-1.4c-0.4-0.6-1-1-1.8-1c-0.6,0-1.1,0.2-1.5,0.7
		c-0.4,0.4-0.6,1-0.6,1.7H242.6z"/>
	<path d="M245.7,462h1.3v1.1c0.3-0.4,0.6-0.7,0.8-0.8c0.4-0.3,0.9-0.4,1.5-0.4c0.6,0,1.1,0.2,1.5,0.5c0.2,0.2,0.4,0.4,0.6,0.8
		c0.3-0.4,0.6-0.7,1-0.9c0.4-0.2,0.8-0.3,1.3-0.3c1.1,0,1.8,0.4,2.2,1.1c0.2,0.4,0.3,1,0.3,1.7v5.2h-1.4v-5.4c0-0.5-0.1-0.9-0.4-1.1
		c-0.3-0.2-0.6-0.3-1-0.3c-0.5,0-1,0.2-1.3,0.5c-0.4,0.3-0.6,0.9-0.6,1.7v4.6h-1.3v-5.1c0-0.5-0.1-0.9-0.2-1.2
		c-0.2-0.4-0.6-0.5-1.1-0.5c-0.5,0-1,0.2-1.4,0.6s-0.6,1.1-0.6,2.1v4.2h-1.3V462z"/>
	<path d="M258.1,462h1.3v1c0.3-0.4,0.6-0.6,0.9-0.8c0.4-0.3,1-0.4,1.6-0.4c0.9,0,1.6,0.3,2.3,1c0.6,0.7,0.9,1.7,0.9,2.9
		c0,1.7-0.4,2.9-1.3,3.7c-0.6,0.5-1.2,0.7-2,0.7c-0.6,0-1.1-0.1-1.5-0.4c-0.2-0.1-0.5-0.4-0.8-0.8v4h-1.3V462z M263,468.2
		c0.4-0.5,0.6-1.3,0.6-2.3c0-0.6-0.1-1.2-0.3-1.6c-0.3-0.9-1-1.3-1.9-1.3c-0.9,0-1.5,0.5-1.9,1.4c-0.2,0.5-0.3,1.1-0.3,1.9
		c0,0.6,0.1,1.1,0.3,1.5c0.3,0.8,1,1.2,1.9,1.2C262.1,468.9,262.6,468.7,263,468.2z"/>
	<path d="M271.4,462.2c0.5,0.3,0.9,0.6,1.2,1c0.3,0.4,0.4,0.9,0.5,1.4c0.1,0.4,0.1,0.9,0.1,1.7h-5.7c0,0.8,0.2,1.4,0.6,1.9
		s0.9,0.7,1.6,0.7c0.7,0,1.2-0.2,1.6-0.7c0.2-0.3,0.4-0.6,0.5-0.9h1.3c0,0.3-0.1,0.6-0.3,1c-0.2,0.4-0.4,0.6-0.6,0.9
		c-0.4,0.4-0.9,0.7-1.5,0.8c-0.3,0.1-0.7,0.1-1.1,0.1c-1,0-1.8-0.4-2.5-1.1c-0.7-0.7-1-1.7-1-3c0-1.3,0.3-2.3,1-3.1s1.6-1.2,2.7-1.2
		C270.3,461.8,270.8,461.9,271.4,462.2z M271.8,465.3c-0.1-0.6-0.2-1-0.4-1.4c-0.4-0.6-1-1-1.8-1c-0.6,0-1.1,0.2-1.5,0.7
		c-0.4,0.4-0.6,1-0.6,1.7H271.8z"/>
	<path d="M274.9,462h1.3v1.4c0.1-0.3,0.4-0.6,0.8-1c0.4-0.4,0.9-0.6,1.4-0.6c0,0,0.1,0,0.1,0s0.2,0,0.3,0v1.4c-0.1,0-0.2,0-0.2,0
		c-0.1,0-0.1,0-0.2,0c-0.7,0-1.2,0.2-1.5,0.6c-0.4,0.4-0.5,0.9-0.5,1.5v4.5h-1.3V462z"/>
	<path d="M284.1,465.1c0.3,0,0.5-0.2,0.6-0.4c0.1-0.1,0.1-0.3,0.1-0.5c0-0.5-0.2-0.8-0.5-1c-0.3-0.2-0.8-0.3-1.4-0.3
		c-0.7,0-1.2,0.2-1.5,0.6c-0.2,0.2-0.3,0.5-0.3,0.9h-1.2c0-1,0.3-1.6,0.9-2c0.6-0.4,1.3-0.6,2.1-0.6c0.9,0,1.7,0.2,2.2,0.5
		c0.6,0.4,0.9,0.9,0.9,1.6v4.5c0,0.1,0,0.2,0.1,0.3c0.1,0.1,0.2,0.1,0.4,0.1c0.1,0,0.1,0,0.2,0c0.1,0,0.2,0,0.2,0v1
		c-0.2,0.1-0.4,0.1-0.5,0.1s-0.3,0-0.4,0c-0.5,0-0.8-0.2-1-0.5c-0.1-0.2-0.2-0.4-0.2-0.7c-0.3,0.4-0.7,0.7-1.2,0.9
		c-0.5,0.3-1.1,0.4-1.7,0.4c-0.7,0-1.3-0.2-1.8-0.7c-0.5-0.4-0.7-1-0.7-1.7c0-0.7,0.2-1.3,0.7-1.7c0.5-0.4,1-0.6,1.8-0.7
		L284.1,465.1z M281.3,468.6c0.3,0.2,0.6,0.3,1,0.3c0.5,0,0.9-0.1,1.3-0.3c0.7-0.4,1.1-0.9,1.1-1.7v-1.1c-0.2,0.1-0.4,0.2-0.6,0.3
		s-0.5,0.1-0.7,0.1l-0.8,0.1c-0.5,0.1-0.8,0.2-1.1,0.3c-0.4,0.2-0.6,0.6-0.6,1.1C280.9,468.1,281,468.4,281.3,468.6z"/>
	<path d="M288.5,459.8h1.3v2.2h1.3v1.1h-1.3v5.1c0,0.3,0.1,0.5,0.3,0.5c0.1,0.1,0.3,0.1,0.5,0.1c0.1,0,0.1,0,0.2,0
		c0.1,0,0.2,0,0.3,0v1c-0.2,0-0.3,0.1-0.5,0.1c-0.2,0-0.3,0-0.5,0c-0.6,0-1-0.2-1.3-0.5c-0.2-0.3-0.3-0.7-0.3-1.2v-5.2h-1.1V462h1.1
		V459.8z"/>
	<path d="M293.7,462v5.2c0,0.4,0.1,0.7,0.2,1c0.2,0.5,0.7,0.7,1.3,0.7c0.9,0,1.5-0.4,1.8-1.2c0.2-0.4,0.3-1,0.3-1.8V462h1.3v7.8
		h-1.2l0-1.2c-0.2,0.3-0.4,0.5-0.6,0.8c-0.5,0.4-1.1,0.6-1.8,0.6c-1.1,0-1.8-0.4-2.2-1.1c-0.2-0.4-0.3-0.9-0.3-1.6V462H293.7z"/>
	<path d="M300.7,462h1.3v1.4c0.1-0.3,0.4-0.6,0.8-1c0.4-0.4,0.9-0.6,1.4-0.6c0,0,0.1,0,0.1,0s0.2,0,0.3,0v1.4c-0.1,0-0.2,0-0.2,0
		c-0.1,0-0.1,0-0.2,0c-0.7,0-1.2,0.2-1.5,0.6c-0.4,0.4-0.5,0.9-0.5,1.5v4.5h-1.3V462z"/>
	<path d="M310.5,462.2c0.5,0.3,0.9,0.6,1.2,1c0.3,0.4,0.4,0.9,0.5,1.4c0.1,0.4,0.1,0.9,0.1,1.7h-5.7c0,0.8,0.2,1.4,0.6,1.9
		s0.9,0.7,1.6,0.7c0.7,0,1.2-0.2,1.6-0.7c0.2-0.3,0.4-0.6,0.5-0.9h1.3c0,0.3-0.1,0.6-0.3,1c-0.2,0.4-0.4,0.6-0.6,0.9
		c-0.4,0.4-0.9,0.7-1.5,0.8c-0.3,0.1-0.7,0.1-1.1,0.1c-1,0-1.8-0.4-2.5-1.1c-0.7-0.7-1-1.7-1-3c0-1.3,0.3-2.3,1-3.1s1.6-1.2,2.7-1.2
		C309.5,461.8,310,461.9,310.5,462.2z M311,465.3c-0.1-0.6-0.2-1-0.4-1.4c-0.4-0.6-1-1-1.8-1c-0.6,0-1.1,0.2-1.5,0.7
		c-0.4,0.4-0.6,1-0.6,1.7H311z"/>
	<path d="M321.7,458.9c-0.8,1.5-1.3,2.6-1.5,3.3c-0.3,1.1-0.5,2.3-0.5,3.7c0,1.4,0.2,2.7,0.6,3.9c0.2,0.7,0.7,1.8,1.4,3.1h-0.9
		c-0.7-1.1-1.2-1.8-1.3-2.1c-0.2-0.3-0.4-0.7-0.6-1.3c-0.3-0.7-0.5-1.5-0.6-2.3c-0.1-0.4-0.1-0.8-0.1-1.2c0-1.4,0.2-2.7,0.7-3.9
		c0.3-0.7,0.9-1.8,1.8-3.2H321.7z"/>
	<path d="M323.4,459.1h1.4v5.3l5.4-5.3h2l-4.6,4.3l4.7,6.4h-1.9l-3.9-5.4l-1.8,1.7v3.8h-1.4V459.1z"/>
	<path d="M332.8,472.9c0.8-1.5,1.3-2.6,1.5-3.3c0.3-1,0.5-2.3,0.5-3.7s-0.2-2.7-0.6-3.9c-0.2-0.7-0.7-1.8-1.4-3.1h0.9
		c0.8,1.2,1.2,1.9,1.4,2.2c0.2,0.3,0.3,0.7,0.5,1.2c0.2,0.6,0.4,1.2,0.5,1.8c0.1,0.6,0.1,1.2,0.1,1.7c0,1.4-0.2,2.7-0.7,3.9
		c-0.3,0.7-0.9,1.8-1.8,3.2H332.8z"/>
</g>
<g>
	<path d="M243.9,495.4c0.7,0.7,1.2,1.5,1.2,2.4h-1.4c-0.2-0.7-0.5-1.2-0.9-1.6c-0.5-0.4-1.1-0.6-2-0.6c-1,0-1.9,0.4-2.5,1.1
		c-0.6,0.7-1,1.9-1,3.4c0,1.3,0.3,2.3,0.9,3.1c0.6,0.8,1.4,1.2,2.6,1.2c1.1,0,1.9-0.4,2.4-1.2c0.3-0.4,0.5-1,0.7-1.7h1.4
		c-0.1,1.1-0.5,2.1-1.2,2.8c-0.8,0.9-2,1.4-3.4,1.4c-1.2,0-2.3-0.4-3.1-1.1c-1.1-1-1.7-2.5-1.7-4.6c0-1.6,0.4-2.9,1.2-3.9
		c0.9-1.1,2.1-1.7,3.7-1.7C242.1,494.4,243.1,494.7,243.9,495.4z"/>
	<path d="M252.6,498.4c0.7,0.7,1,1.7,1,3c0,1.3-0.3,2.3-0.9,3.1c-0.6,0.8-1.6,1.2-2.8,1.2c-1.1,0-1.9-0.4-2.6-1.1s-0.9-1.7-0.9-2.9
		c0-1.3,0.3-2.4,1-3.1c0.7-0.8,1.6-1.2,2.7-1.2C251.1,497.3,251.9,497.7,252.6,498.4z M251.8,503.6c0.3-0.7,0.5-1.4,0.5-2.2
		c0-0.7-0.1-1.3-0.3-1.8c-0.4-0.7-1-1.1-1.9-1.1c-0.8,0-1.4,0.3-1.7,0.9c-0.4,0.6-0.5,1.4-0.5,2.2c0,0.8,0.2,1.5,0.5,2.1
		c0.4,0.6,0.9,0.8,1.7,0.8C250.9,504.6,251.5,504.2,251.8,503.6z"/>
	<path d="M255.3,494.7h1.3v10.8h-1.3V494.7z"/>
	<path d="M264.3,498.4c0.7,0.7,1,1.7,1,3c0,1.3-0.3,2.3-0.9,3.1c-0.6,0.8-1.6,1.2-2.8,1.2c-1.1,0-1.9-0.4-2.6-1.1s-0.9-1.7-0.9-2.9
		c0-1.3,0.3-2.4,1-3.1c0.7-0.8,1.6-1.2,2.7-1.2C262.7,497.3,263.6,497.7,264.3,498.4z M263.5,503.6c0.3-0.7,0.5-1.4,0.5-2.2
		c0-0.7-0.1-1.3-0.3-1.8c-0.4-0.7-1-1.1-1.9-1.1c-0.8,0-1.4,0.3-1.7,0.9c-0.4,0.6-0.5,1.4-0.5,2.2c0,0.8,0.2,1.5,0.5,2.1
		c0.4,0.6,0.9,0.8,1.7,0.8C262.5,504.6,263.1,504.2,263.5,503.6z"/>
	<path d="M267,497.6h1.3v1.4c0.1-0.3,0.4-0.6,0.8-1c0.4-0.4,0.9-0.6,1.4-0.6c0,0,0.1,0,0.1,0s0.2,0,0.3,0v1.4c-0.1,0-0.2,0-0.2,0
		c-0.1,0-0.1,0-0.2,0c-0.7,0-1.2,0.2-1.5,0.6c-0.4,0.4-0.5,0.9-0.5,1.5v4.5H267V497.6z"/>
</g>
<g>
	<path d="M91.1,448.7h1.5v4.4h5.5v-4.4h1.5v10.8h-1.5v-5h-5.5v5h-1.5V448.7z"/>
	<path d="M107.4,452.4c0.7,0.7,1,1.7,1,3c0,1.3-0.3,2.3-0.9,3.1c-0.6,0.8-1.6,1.2-2.8,1.2c-1.1,0-1.9-0.4-2.6-1.1s-0.9-1.7-0.9-2.9
		c0-1.3,0.3-2.4,1-3.1c0.7-0.8,1.6-1.2,2.7-1.2C105.8,451.4,106.7,451.7,107.4,452.4z M106.6,457.6c0.3-0.7,0.5-1.4,0.5-2.2
		c0-0.7-0.1-1.3-0.3-1.8c-0.4-0.7-1-1.1-1.9-1.1c-0.8,0-1.4,0.3-1.7,0.9c-0.4,0.6-0.5,1.4-0.5,2.2c0,0.8,0.2,1.5,0.5,2.1
		c0.4,0.6,0.9,0.8,1.7,0.8C105.7,458.6,106.2,458.3,106.6,457.6z"/>
	<path d="M110.3,449.4h1.3v2.2h1.3v1.1h-1.3v5.1c0,0.3,0.1,0.5,0.3,0.5c0.1,0.1,0.3,0.1,0.5,0.1c0.1,0,0.1,0,0.2,0
		c0.1,0,0.2,0,0.3,0v1c-0.2,0-0.3,0.1-0.5,0.1c-0.2,0-0.3,0-0.5,0c-0.6,0-1-0.2-1.3-0.5c-0.2-0.3-0.3-0.7-0.3-1.2v-5.2h-1.1v-1.1
		h1.1V449.4z"/>
</g>
<g>
	<path d="M476.5,449.2c0.7,0.7,1.2,1.5,1.2,2.4h-1.4c-0.2-0.7-0.5-1.2-0.9-1.6c-0.5-0.4-1.1-0.6-2-0.6c-1,0-1.9,0.4-2.5,1.1
		c-0.6,0.7-1,1.9-1,3.4c0,1.3,0.3,2.3,0.9,3.1c0.6,0.8,1.4,1.2,2.6,1.2c1.1,0,1.9-0.4,2.4-1.2c0.3-0.4,0.5-1,0.7-1.7h1.4
		c-0.1,1.1-0.5,2.1-1.2,2.8c-0.8,0.9-2,1.4-3.4,1.4c-1.2,0-2.3-0.4-3.1-1.1c-1.1-1-1.7-2.5-1.7-4.6c0-1.6,0.4-2.9,1.2-3.9
		c0.9-1.1,2.1-1.7,3.7-1.7C474.7,448.1,475.7,448.5,476.5,449.2z"/>
	<path d="M485.2,452.1c0.7,0.7,1,1.7,1,3c0,1.3-0.3,2.3-0.9,3.1c-0.6,0.8-1.6,1.2-2.8,1.2c-1.1,0-1.9-0.4-2.6-1.1
		c-0.6-0.7-0.9-1.7-0.9-2.9c0-1.3,0.3-2.4,1-3.1s1.6-1.2,2.7-1.2C483.6,451.1,484.5,451.4,485.2,452.1z M484.4,457.3
		c0.3-0.7,0.5-1.4,0.5-2.2c0-0.7-0.1-1.3-0.3-1.8c-0.4-0.7-1-1.1-1.9-1.1c-0.8,0-1.4,0.3-1.7,0.9c-0.4,0.6-0.5,1.4-0.5,2.2
		c0,0.8,0.2,1.5,0.5,2.1c0.4,0.6,0.9,0.8,1.7,0.8C483.5,458.3,484,458,484.4,457.3z"/>
	<path d="M493.5,452.1c0.7,0.7,1,1.7,1,3c0,1.3-0.3,2.3-0.9,3.1c-0.6,0.8-1.6,1.2-2.8,1.2c-1.1,0-1.9-0.4-2.6-1.1
		c-0.6-0.7-0.9-1.7-0.9-2.9c0-1.3,0.3-2.4,1-3.1s1.6-1.2,2.7-1.2C492,451.1,492.8,451.4,493.5,452.1z M492.7,457.3
		c0.3-0.7,0.5-1.4,0.5-2.2c0-0.7-0.1-1.3-0.3-1.8c-0.4-0.7-1-1.1-1.9-1.1c-0.8,0-1.4,0.3-1.7,0.9c-0.4,0.6-0.5,1.4-0.5,2.2
		c0,0.8,0.2,1.5,0.5,2.1c0.4,0.6,0.9,0.8,1.7,0.8C491.8,458.3,492.4,458,492.7,457.3z"/>
	<path d="M496.2,448.4h1.3v10.8h-1.3V448.4z"/>
</g>
<g>
	<path d="M90.3,495.2H95c1.3,0,2.2,0.4,2.7,1.1c0.3,0.4,0.5,1,0.5,1.5c0,0.7-0.2,1.2-0.6,1.7c-0.2,0.2-0.5,0.4-0.9,0.6
		c0.6,0.2,1,0.4,1.2,0.7c0.5,0.5,0.7,1.1,0.7,1.9c0,0.7-0.2,1.3-0.7,1.9c-0.7,0.8-1.7,1.3-3.1,1.3h-4.6V495.2z M94.4,499.7
		c0.6,0,1.1-0.1,1.5-0.3c0.5-0.3,0.8-0.8,0.8-1.5c0-0.7-0.3-1.2-0.9-1.4c-0.3-0.1-0.8-0.2-1.5-0.2h-2.6v3.3H94.4z M94.9,504.7
		c0.9,0,1.5-0.3,1.9-0.8c0.2-0.3,0.4-0.7,0.4-1.2c0-0.8-0.4-1.3-1.1-1.6c-0.4-0.2-0.9-0.2-1.5-0.2h-2.9v3.8H94.9z"/>
	<path d="M100.2,495.2h1.3v10.8h-1.3V495.2z"/>
	<path d="M104.9,498.1v5.2c0,0.4,0.1,0.7,0.2,1c0.2,0.5,0.7,0.7,1.3,0.7c0.9,0,1.5-0.4,1.8-1.2c0.2-0.4,0.3-1,0.3-1.8v-3.9h1.3v7.8
		h-1.2l0-1.2c-0.2,0.3-0.4,0.5-0.6,0.8c-0.5,0.4-1.1,0.6-1.8,0.6c-1.1,0-1.8-0.4-2.2-1.1c-0.2-0.4-0.3-0.9-0.3-1.6v-5.3H104.9z"/>
	<path d="M116.7,498.3c0.5,0.3,0.9,0.6,1.2,1c0.3,0.4,0.4,0.9,0.5,1.4c0.1,0.4,0.1,0.9,0.1,1.7h-5.7c0,0.8,0.2,1.4,0.6,1.9
		s0.9,0.7,1.6,0.7c0.7,0,1.2-0.2,1.6-0.7c0.2-0.3,0.4-0.6,0.5-0.9h1.3c0,0.3-0.1,0.6-0.3,1c-0.2,0.4-0.4,0.6-0.6,0.9
		c-0.4,0.4-0.9,0.7-1.5,0.8c-0.3,0.1-0.7,0.1-1.1,0.1c-1,0-1.8-0.4-2.5-1.1c-0.7-0.7-1-1.7-1-3c0-1.3,0.3-2.3,1-3.1s1.6-1.2,2.7-1.2
		C115.7,497.9,116.2,498.1,116.7,498.3z M117.2,501.4c-0.1-0.6-0.2-1-0.4-1.4c-0.4-0.6-1-1-1.8-1c-0.6,0-1.1,0.2-1.5,0.7
		c-0.4,0.4-0.6,1-0.6,1.7H117.2z"/>
</g>
<g>
	<path d="M469.7,494.8h4.9c0.8,0,1.5,0.1,2,0.4c1,0.5,1.5,1.3,1.5,2.5c0,0.6-0.1,1.2-0.4,1.6c-0.3,0.4-0.6,0.7-1.1,1
		c0.4,0.2,0.7,0.4,0.9,0.7c0.2,0.3,0.3,0.7,0.4,1.4l0.1,1.4c0,0.4,0,0.7,0.1,0.9c0.1,0.3,0.2,0.6,0.5,0.7v0.2h-1.8
		c0-0.1-0.1-0.2-0.1-0.4s-0.1-0.4-0.1-0.8l-0.1-1.8c0-0.7-0.3-1.2-0.8-1.4c-0.3-0.1-0.7-0.2-1.3-0.2h-3.2v4.6h-1.5V494.8z
		 M474.4,499.7c0.7,0,1.2-0.1,1.6-0.4s0.6-0.8,0.6-1.5c0-0.8-0.3-1.3-0.8-1.6c-0.3-0.1-0.7-0.2-1.2-0.2h-3.5v3.7H474.4z"/>
	<path d="M485,497.9c0.5,0.3,0.9,0.6,1.2,1c0.3,0.4,0.4,0.9,0.5,1.4c0.1,0.4,0.1,0.9,0.1,1.7h-5.7c0,0.8,0.2,1.4,0.6,1.9
		s0.9,0.7,1.6,0.7c0.7,0,1.2-0.2,1.6-0.7c0.2-0.3,0.4-0.6,0.5-0.9h1.3c0,0.3-0.1,0.6-0.3,1c-0.2,0.4-0.4,0.6-0.6,0.9
		c-0.4,0.4-0.9,0.7-1.5,0.8c-0.3,0.1-0.7,0.1-1.1,0.1c-1,0-1.8-0.4-2.5-1.1c-0.7-0.7-1-1.7-1-3c0-1.3,0.3-2.3,1-3.1s1.6-1.2,2.7-1.2
		C484,497.5,484.5,497.7,485,497.9z M485.5,501c-0.1-0.6-0.2-1-0.4-1.4c-0.4-0.6-1-1-1.8-1c-0.6,0-1.1,0.2-1.5,0.7
		c-0.4,0.4-0.6,1-0.6,1.7H485.5z"/>
	<path d="M492.8,497.9c0.2,0.1,0.5,0.4,0.8,0.8v-4h1.3v10.8h-1.2v-1.1c-0.3,0.5-0.7,0.8-1.1,1c-0.4,0.2-0.9,0.3-1.4,0.3
		c-0.9,0-1.6-0.4-2.3-1.1c-0.6-0.7-1-1.7-1-2.9c0-1.1,0.3-2.1,0.9-3c0.6-0.8,1.4-1.3,2.5-1.3C491.9,497.6,492.4,497.7,492.8,497.9z
		 M489.9,503.8c0.4,0.6,0.9,0.8,1.7,0.8c0.6,0,1.1-0.3,1.5-0.8c0.4-0.5,0.6-1.3,0.6-2.3c0-1-0.2-1.7-0.6-2.2
		c-0.4-0.5-0.9-0.7-1.5-0.7c-0.7,0-1.2,0.3-1.6,0.8c-0.4,0.5-0.6,1.3-0.6,2.2C489.4,502.6,489.5,503.3,489.9,503.8z"/>
</g>
<g>
	<path d="M60.7,430.6H65c1.5,0,2.6,0.5,3.4,1.6c0.7,0.9,1.1,2.2,1.1,3.6c0,1.1-0.2,2.2-0.6,3.1c-0.7,1.6-2,2.4-3.9,2.4h-4.3V430.6z
		 M64.7,440.1c0.5,0,0.9-0.1,1.2-0.2c0.6-0.2,1-0.6,1.4-1.1c0.3-0.4,0.5-1,0.6-1.7c0.1-0.4,0.1-0.8,0.1-1.1c0-1.3-0.3-2.4-0.8-3.1
		c-0.5-0.7-1.4-1.1-2.5-1.1h-2.5v8.3H64.7z"/>
	<path d="M71.3,430.6h1.3v1.5h-1.3V430.6z M71.3,433.6h1.3v7.8h-1.3V433.6z"/>
	<path d="M74.6,433.5h1.3v1.1c0.3-0.4,0.6-0.7,0.8-0.8c0.4-0.3,0.9-0.4,1.5-0.4c0.6,0,1.1,0.2,1.5,0.5c0.2,0.2,0.4,0.4,0.6,0.8
		c0.3-0.4,0.6-0.7,1-0.9c0.4-0.2,0.8-0.3,1.3-0.3c1.1,0,1.8,0.4,2.2,1.1c0.2,0.4,0.3,1,0.3,1.7v5.2h-1.4v-5.4c0-0.5-0.1-0.9-0.4-1.1
		c-0.3-0.2-0.6-0.3-1-0.3c-0.5,0-1,0.2-1.3,0.5c-0.4,0.3-0.6,0.9-0.6,1.7v4.6h-1.3v-5.1c0-0.5-0.1-0.9-0.2-1.2
		c-0.2-0.4-0.6-0.5-1.1-0.5c-0.5,0-1,0.2-1.4,0.6s-0.6,1.1-0.6,2.1v4.2h-1.3V433.5z"/>
</g>
<g>
	<path d="M48.3,41h4.7c1.3,0,2.2,0.4,2.7,1.1c0.3,0.4,0.5,1,0.5,1.5c0,0.7-0.2,1.2-0.6,1.7c-0.2,0.2-0.5,0.4-0.9,0.6
		c0.6,0.2,1,0.4,1.2,0.7c0.5,0.5,0.7,1.1,0.7,1.9c0,0.7-0.2,1.3-0.7,1.9c-0.7,0.8-1.7,1.3-3.1,1.3h-4.6V41z M52.4,45.6
		c0.6,0,1.1-0.1,1.5-0.3c0.5-0.3,0.8-0.8,0.8-1.5c0-0.7-0.3-1.2-0.9-1.4c-0.3-0.1-0.8-0.2-1.5-0.2h-2.6v3.3H52.4z M52.9,50.5
		c0.9,0,1.5-0.3,1.9-0.8c0.2-0.3,0.4-0.7,0.4-1.2c0-0.8-0.4-1.3-1.1-1.6c-0.4-0.2-0.9-0.2-1.5-0.2h-2.9v3.8H52.9z"/>
	<path d="M58.2,43.9h1.3v1.4c0.1-0.3,0.4-0.6,0.8-1s0.9-0.6,1.4-0.6c0,0,0.1,0,0.1,0s0.2,0,0.3,0v1.4c-0.1,0-0.2,0-0.2,0
		c-0.1,0-0.1,0-0.2,0c-0.7,0-1.2,0.2-1.5,0.6s-0.5,0.9-0.5,1.5v4.5h-1.3V43.9z"/>
	<path d="M63.1,41h1.3v1.5h-1.3V41z M63.1,44h1.3v7.8h-1.3V44z"/>
	<path d="M70.8,44.2c0.2,0.2,0.5,0.4,0.8,0.7v-1h1.2v7.1c0,1-0.1,1.8-0.4,2.4c-0.5,1.1-1.6,1.6-3.1,1.6c-0.8,0-1.5-0.2-2.1-0.6
		s-0.9-1-1-1.8h1.3c0.1,0.4,0.2,0.6,0.4,0.8c0.3,0.3,0.8,0.4,1.4,0.4c1,0,1.7-0.4,2-1.1c0.2-0.4,0.3-1.2,0.3-2.2
		c-0.3,0.4-0.6,0.7-0.9,0.9s-0.9,0.3-1.5,0.3c-0.8,0-1.6-0.3-2.2-0.9c-0.6-0.6-1-1.6-1-3c0-1.3,0.3-2.3,1-3.1s1.4-1.1,2.3-1.1
		C69.8,43.8,70.4,43.9,70.8,44.2z M71,45.6c-0.4-0.5-0.9-0.7-1.5-0.7c-0.9,0-1.6,0.4-1.9,1.3c-0.2,0.5-0.3,1.1-0.3,1.8
		c0,0.9,0.2,1.6,0.5,2c0.4,0.5,0.8,0.7,1.4,0.7c0.9,0,1.6-0.4,2-1.3c0.2-0.5,0.3-1,0.3-1.7C71.6,46.8,71.4,46.1,71,45.6z"/>
	<path d="M74.8,41h1.3v4c0.3-0.4,0.6-0.7,0.8-0.8c0.4-0.3,1-0.4,1.6-0.4c1.1,0,1.9,0.4,2.3,1.2c0.2,0.4,0.3,1,0.3,1.8v5h-1.4v-4.9
		c0-0.6-0.1-1-0.2-1.3c-0.2-0.4-0.7-0.6-1.3-0.6c-0.5,0-1,0.2-1.5,0.6s-0.7,1.1-0.7,2.1v4.2h-1.3V41z"/>
	<path d="M83.4,41.7h1.3v2.2H86V45h-1.3v5.1c0,0.3,0.1,0.5,0.3,0.5c0.1,0.1,0.3,0.1,0.5,0.1c0.1,0,0.1,0,0.2,0c0.1,0,0.2,0,0.3,0v1
		c-0.2,0-0.3,0.1-0.5,0.1c-0.2,0-0.3,0-0.5,0c-0.6,0-1-0.2-1.3-0.5c-0.2-0.3-0.3-0.7-0.3-1.2V45h-1.1v-1.1h1.1V41.7z"/>
</g>
<g>
	<path d="M57.8,293.4v-1.5h9.5v-5.4h1.3v6.9H57.8z"/>
	<path d="M60.7,283.9h5.2c0.4,0,0.7-0.1,1-0.2c0.5-0.2,0.7-0.7,0.7-1.3c0-0.9-0.4-1.5-1.2-1.8c-0.4-0.2-1-0.3-1.8-0.3h-3.9V279h7.8
		v1.2l-1.2,0c0.3,0.2,0.5,0.4,0.8,0.6c0.4,0.5,0.6,1.1,0.6,1.8c0,1.1-0.4,1.8-1.1,2.2c-0.4,0.2-0.9,0.3-1.6,0.3h-5.3V283.9z"/>
	<path d="M60.7,276.9v-1.3h1.1c-0.4-0.3-0.7-0.6-0.8-0.8c-0.3-0.4-0.4-0.9-0.4-1.5c0-0.6,0.2-1.1,0.5-1.5c0.2-0.2,0.4-0.4,0.8-0.6
		c-0.4-0.3-0.7-0.6-0.9-1s-0.3-0.8-0.3-1.3c0-1.1,0.4-1.8,1.1-2.2c0.4-0.2,1-0.3,1.7-0.3h5.2v1.4h-5.4c-0.5,0-0.9,0.1-1.1,0.4
		c-0.2,0.3-0.3,0.6-0.3,1c0,0.5,0.2,1,0.5,1.3c0.3,0.4,0.9,0.6,1.7,0.6h4.6v1.3h-5.1c-0.5,0-0.9,0.1-1.2,0.2
		c-0.4,0.2-0.5,0.6-0.5,1.1c0,0.5,0.2,1,0.6,1.4s1.1,0.6,2.1,0.6h4.2v1.3H60.7z"/>
	<path d="M57.8,264.4v-1.3h1.5v1.3H57.8z M60.8,264.4v-1.3h7.8v1.3H60.8z"/>
	<path d="M60.7,261.1v-1.3h1.1c-0.5-0.4-0.8-0.8-1-1.2s-0.3-0.9-0.3-1.4c0-1.1,0.4-1.9,1.2-2.3c0.4-0.2,1-0.3,1.8-0.3h5v1.3h-4.9
		c-0.5,0-0.9,0.1-1.2,0.2c-0.5,0.2-0.7,0.7-0.7,1.3c0,0.3,0,0.6,0.1,0.8c0.1,0.4,0.3,0.7,0.6,1c0.3,0.2,0.5,0.4,0.8,0.4
		c0.3,0.1,0.7,0.1,1.2,0.1h4.1v1.3H60.7z"/>
	<path d="M61.5,247c0.7-0.7,1.7-1,3-1c1.3,0,2.3,0.3,3.1,0.9c0.8,0.6,1.2,1.6,1.2,2.8c0,1.1-0.4,1.9-1.1,2.6
		c-0.7,0.6-1.7,0.9-2.9,0.9c-1.3,0-2.4-0.3-3.1-1c-0.8-0.7-1.2-1.6-1.2-2.7C60.5,248.6,60.8,247.7,61.5,247z M66.7,247.9
		c-0.7-0.3-1.4-0.5-2.2-0.5c-0.7,0-1.3,0.1-1.8,0.3c-0.7,0.4-1.1,1-1.1,1.9c0,0.8,0.3,1.4,0.9,1.7c0.6,0.4,1.4,0.5,2.2,0.5
		c0.8,0,1.5-0.2,2.1-0.5c0.6-0.4,0.8-0.9,0.8-1.7C67.7,248.8,67.4,248.2,66.7,247.9z"/>
	<path d="M66.1,243.6c0.4,0,0.8-0.2,1-0.3c0.4-0.3,0.6-0.9,0.6-1.8c0-0.5-0.1-0.9-0.3-1.3c-0.2-0.4-0.5-0.6-1-0.6
		c-0.3,0-0.6,0.2-0.8,0.5c-0.1,0.2-0.2,0.6-0.4,1.1l-0.3,1.1c-0.2,0.7-0.4,1.2-0.6,1.5c-0.4,0.6-0.8,0.9-1.5,0.9
		c-0.7,0-1.3-0.3-1.8-0.8c-0.5-0.5-0.7-1.3-0.7-2.2c0-1.2,0.3-2.1,1-2.6c0.4-0.3,0.9-0.5,1.4-0.5v1.2c-0.3,0-0.6,0.1-0.8,0.3
		c-0.3,0.3-0.5,0.8-0.5,1.6c0,0.5,0.1,0.9,0.3,1.2c0.2,0.3,0.4,0.4,0.8,0.4c0.3,0,0.6-0.2,0.8-0.5c0.1-0.2,0.2-0.5,0.3-0.9L64,241
		c0.2-1,0.5-1.6,0.7-1.9c0.3-0.5,0.9-0.8,1.6-0.8c0.7,0,1.3,0.3,1.8,0.8c0.5,0.5,0.8,1.4,0.8,2.5c0,1.2-0.3,2-0.8,2.5
		c-0.5,0.5-1.2,0.8-2,0.8V243.6z"/>
	<path d="M57.8,236.9v-1.3h1.5v1.3H57.8z M60.8,236.9v-1.3h7.8v1.3H60.8z"/>
	<path d="M58.5,233.3V232h2.2v-1.3h1.1v1.3h5.1c0.3,0,0.5-0.1,0.5-0.3c0.1-0.1,0.1-0.3,0.1-0.5c0-0.1,0-0.1,0-0.2c0-0.1,0-0.2,0-0.3
		h1c0,0.2,0.1,0.3,0.1,0.5c0,0.2,0,0.3,0,0.5c0,0.6-0.2,1-0.5,1.3c-0.3,0.2-0.7,0.3-1.2,0.3h-5.2v1.1h-1.1v-1.1H58.5z"/>
	<path d="M60.7,224.5V223c0.5,0.2,1.7,0.6,3.4,1.2c1.3,0.5,2.4,0.9,3.3,1.2c2,0.8,3.2,1.3,3.7,1.6c0.4,0.3,0.7,0.8,0.7,1.6
		c0,0.2,0,0.3,0,0.4s0,0.2-0.1,0.4h-1.2c0.1-0.2,0.1-0.4,0.1-0.5c0-0.1,0-0.2,0-0.3c0-0.2,0-0.4-0.1-0.5c-0.1-0.1-0.2-0.2-0.3-0.3
		c0,0-0.2-0.1-0.6-0.3c-0.4-0.2-0.6-0.3-0.8-0.3l-8.1,2.9v-1.5l6.4-2.1L60.7,224.5z"/>
	<path d="M57.6,214.2c1.5,0.8,2.6,1.3,3.3,1.5c1.1,0.3,2.3,0.5,3.7,0.5c1.4,0,2.7-0.2,3.9-0.6c0.7-0.2,1.8-0.7,3.1-1.4v0.9
		c-1.1,0.7-1.8,1.2-2.1,1.3s-0.7,0.4-1.3,0.6c-0.7,0.3-1.5,0.5-2.3,0.6c-0.4,0.1-0.8,0.1-1.2,0.1c-1.4,0-2.7-0.2-3.9-0.7
		c-0.7-0.3-1.8-0.9-3.2-1.8V214.2z"/>
	<path d="M57.8,212.5v-1.5h9.5v-5.4h1.3v6.9H57.8z"/>
	<path d="M73.9,198.3c0,3-2.4,5.4-5.4,5.4c-3,0-5.4-2.4-5.4-5.4c0-3,2.4-5.4,5.4-5.4C71.5,192.9,73.9,195.3,73.9,198.3z M68.5,193.4
		c-2.7,0-4.9,2.2-4.9,4.9c0,2.7,2.2,4.9,4.9,4.9c2.7,0,4.9-2.2,4.9-4.9C73.4,195.6,71.2,193.4,68.5,193.4z M69.5,198.3
		c0,0.6-0.5,1-1,1c-0.5,0-1-0.4-1-1c0-0.6,0.5-1,1-1C69.1,197.3,69.5,197.7,69.5,198.3z"/>
	<path d="M71.6,190.7c-1.5-0.8-2.6-1.3-3.3-1.5c-1-0.3-2.3-0.5-3.7-0.5c-1.4,0-2.7,0.2-3.9,0.6c-0.7,0.2-1.8,0.7-3.1,1.4v-0.9
		c1.2-0.8,1.9-1.2,2.2-1.4s0.7-0.3,1.2-0.5c0.6-0.2,1.2-0.4,1.8-0.5c0.6-0.1,1.2-0.1,1.7-0.1c1.4,0,2.7,0.2,3.9,0.7
		c0.7,0.3,1.8,0.9,3.2,1.8V190.7z"/>
</g>
<g>
	<path d="M6.2,45v-1c1-0.1,1.6-0.2,2-0.5C8.5,43.3,8.8,42.8,9,42h1v10.4H8.6V45H6.2z"/>
	<path d="M20.1,43.6c0.5,0.9,0.7,2,0.7,3.6c0,1.4-0.2,2.6-0.6,3.5c-0.6,1.3-1.6,2-3,2c-1.3,0-2.2-0.5-2.8-1.6
		c-0.5-0.9-0.8-2.1-0.8-3.7c0-1.2,0.2-2.2,0.5-3.1c0.6-1.6,1.6-2.4,3.1-2.4C18.5,41.9,19.5,42.5,20.1,43.6z M18.8,50.6
		c0.4-0.6,0.6-1.7,0.6-3.4c0-1.2-0.1-2.2-0.4-2.9c-0.3-0.8-0.9-1.2-1.7-1.2c-0.8,0-1.3,0.4-1.7,1.1C15.2,45,15,46,15,47.5
		c0,1.1,0.1,1.9,0.3,2.6c0.4,1,1,1.5,1.8,1.5C17.8,51.5,18.4,51.2,18.8,50.6z"/>
	<path d="M28.3,38.8c0.5,0.6,0.7,1.2,0.7,1.9h-1.3c-0.1-0.4-0.2-0.7-0.4-1c-0.3-0.4-0.8-0.7-1.4-0.7c-0.7,0-1.3,0.3-1.8,1
		c-0.4,0.7-0.7,1.7-0.7,2.9c0.3-0.4,0.7-0.8,1.1-1c0.4-0.2,0.9-0.3,1.4-0.3c0.9,0,1.6,0.3,2.3,0.8s1,1.4,1,2.5c0,1-0.3,1.8-0.9,2.5
		s-1.5,1.1-2.7,1.1c-1,0-1.8-0.4-2.5-1.1s-1.1-2-1.1-3.8c0-1.3,0.2-2.4,0.5-3.3c0.6-1.7,1.7-2.6,3.3-2.6
		C27,37.9,27.8,38.2,28.3,38.8z M27.3,46.8c0.3-0.5,0.5-1,0.5-1.7c0-0.5-0.2-1-0.5-1.5s-0.9-0.7-1.7-0.7c-0.6,0-1.1,0.2-1.5,0.6
		s-0.6,0.9-0.6,1.7c0,0.7,0.2,1.2,0.6,1.7c0.4,0.5,0.9,0.7,1.6,0.7C26.4,47.5,26.9,47.3,27.3,46.8z"/>
</g>
<g>
	<path d="M4.6,434.3v-1c1-0.1,1.6-0.2,2-0.5c0.4-0.2,0.7-0.7,0.8-1.5h1v10.4H7.1v-7.4H4.6z"/>
	<path d="M18.5,432.9c0.5,0.9,0.7,2,0.7,3.6c0,1.4-0.2,2.6-0.6,3.5c-0.6,1.3-1.6,2-3,2c-1.3,0-2.2-0.5-2.8-1.6
		c-0.5-0.9-0.8-2.1-0.8-3.7c0-1.2,0.2-2.2,0.5-3.1c0.6-1.6,1.6-2.4,3.1-2.4C16.9,431.2,17.9,431.8,18.5,432.9z M17.2,439.9
		c0.4-0.6,0.6-1.7,0.6-3.4c0-1.2-0.1-2.2-0.4-2.9c-0.3-0.8-0.9-1.2-1.7-1.2c-0.8,0-1.3,0.4-1.7,1.1c-0.4,0.7-0.5,1.8-0.5,3.2
		c0,1.1,0.1,1.9,0.3,2.6c0.4,1,1,1.5,1.8,1.5C16.2,440.8,16.8,440.5,17.2,439.9z"/>
	<path d="M20.5,432.8h3.7v1.4h-3.7V432.8z"/>
	<path d="M29.8,437.7v-2.6h-4.6v-1.3l4.8-6.7h1.1v6.8h1.5v1.1h-1.5v2.6H29.8z M29.8,434v-4.8l-3.4,4.8H29.8z"/>
</g>
<g>
	<path d="M16,318v-1c1-0.1,1.6-0.2,2-0.5c0.4-0.2,0.7-0.7,0.8-1.5h1v10.4h-1.4V318H16z"/>
</g>
<g>
	<path d="M355.8,495.7h1.7l3.1,5.2l3.1-5.2h1.7l-4.1,6.4v4.3h-1.5v-4.3L355.8,495.7z"/>
	<path d="M369.9,498.9c0.5,0.3,0.9,0.6,1.2,1c0.3,0.4,0.4,0.9,0.5,1.4c0.1,0.4,0.1,0.9,0.1,1.7H366c0,0.8,0.2,1.4,0.6,1.9
		s0.9,0.7,1.6,0.7c0.7,0,1.2-0.2,1.6-0.7c0.2-0.3,0.4-0.6,0.5-0.9h1.3c0,0.3-0.1,0.6-0.3,1c-0.2,0.4-0.4,0.6-0.6,0.9
		c-0.4,0.4-0.9,0.7-1.5,0.8c-0.3,0.1-0.7,0.1-1.1,0.1c-1,0-1.8-0.4-2.5-1.1c-0.7-0.7-1-1.7-1-3c0-1.3,0.3-2.3,1-3.1s1.6-1.2,2.7-1.2
		C368.8,498.5,369.4,498.6,369.9,498.9z M370.4,501.9c-0.1-0.6-0.2-1-0.4-1.4c-0.4-0.6-1-1-1.8-1c-0.6,0-1.1,0.2-1.5,0.7
		c-0.4,0.4-0.6,1-0.6,1.7H370.4z"/>
	<path d="M373.4,495.7h1.3v10.8h-1.3V495.7z"/>
	<path d="M376.8,495.7h1.3v10.8h-1.3V495.7z"/>
	<path d="M385.7,499.4c0.7,0.7,1,1.7,1,3c0,1.3-0.3,2.3-0.9,3.1c-0.6,0.8-1.6,1.2-2.8,1.2c-1.1,0-1.9-0.4-2.6-1.1
		c-0.6-0.7-0.9-1.7-0.9-2.9c0-1.3,0.3-2.4,1-3.1s1.6-1.2,2.7-1.2C384.2,498.4,385,498.8,385.7,499.4z M384.9,504.6
		c0.3-0.7,0.5-1.4,0.5-2.2c0-0.7-0.1-1.3-0.3-1.8c-0.4-0.7-1-1.1-1.9-1.1c-0.8,0-1.4,0.3-1.7,0.9c-0.4,0.6-0.5,1.4-0.5,2.2
		c0,0.8,0.2,1.5,0.5,2.1c0.4,0.6,0.9,0.8,1.7,0.8C384,505.6,384.6,505.3,384.9,504.6z"/>
	<path d="M389,498.6l1.5,6.2l1.5-6.2h1.5l1.5,6.1l1.6-6.1h1.3l-2.3,7.8h-1.4l-1.6-6.1l-1.5,6.1h-1.4l-2.3-7.8H389z"/>
</g>
<g>
	<path d="M357.3,449.1l2,8.7l2.4-8.7h1.6l2.4,8.8l2-8.8h1.6l-2.8,10.8H365l-2.5-8.9l-2.5,8.9h-1.5l-2.8-10.8H357.3z"/>
	<path d="M374.2,455.1c0.3,0,0.5-0.2,0.6-0.4c0.1-0.1,0.1-0.3,0.1-0.5c0-0.5-0.2-0.8-0.5-1s-0.8-0.3-1.4-0.3c-0.7,0-1.2,0.2-1.5,0.6
		c-0.2,0.2-0.3,0.5-0.3,0.9h-1.2c0-1,0.3-1.6,0.9-2c0.6-0.4,1.3-0.6,2.1-0.6c0.9,0,1.7,0.2,2.2,0.5c0.6,0.4,0.9,0.9,0.9,1.6v4.5
		c0,0.1,0,0.2,0.1,0.3c0.1,0.1,0.2,0.1,0.4,0.1c0.1,0,0.1,0,0.2,0c0.1,0,0.2,0,0.2,0v1c-0.2,0.1-0.4,0.1-0.5,0.1s-0.3,0-0.4,0
		c-0.5,0-0.8-0.2-1-0.5c-0.1-0.2-0.2-0.4-0.2-0.7c-0.3,0.4-0.7,0.7-1.2,0.9c-0.5,0.3-1.1,0.4-1.7,0.4c-0.7,0-1.3-0.2-1.8-0.7
		c-0.5-0.4-0.7-1-0.7-1.7c0-0.7,0.2-1.3,0.7-1.7c0.5-0.4,1-0.6,1.8-0.7L374.2,455.1z M371.5,458.6c0.3,0.2,0.6,0.3,1,0.3
		c0.5,0,0.9-0.1,1.3-0.3c0.7-0.4,1.1-0.9,1.1-1.7v-1.1c-0.2,0.1-0.4,0.2-0.6,0.3c-0.3,0.1-0.5,0.1-0.7,0.1l-0.8,0.1
		c-0.5,0.1-0.8,0.2-1.1,0.3c-0.4,0.2-0.6,0.6-0.6,1.1C371,458.1,371.2,458.4,371.5,458.6z"/>
	<path d="M378.4,452h1.3v1.4c0.1-0.3,0.4-0.6,0.8-1c0.4-0.4,0.9-0.6,1.4-0.6c0,0,0.1,0,0.1,0s0.2,0,0.3,0v1.4c-0.1,0-0.2,0-0.2,0
		c-0.1,0-0.1,0-0.2,0c-0.7,0-1.2,0.2-1.5,0.6c-0.4,0.4-0.5,0.9-0.5,1.5v4.5h-1.3V452z"/>
	<path d="M383.4,452h1.3v1.1c0.3-0.4,0.6-0.7,0.8-0.8c0.4-0.3,0.9-0.4,1.5-0.4c0.6,0,1.1,0.2,1.5,0.5c0.2,0.2,0.4,0.4,0.6,0.8
		c0.3-0.4,0.6-0.7,1-0.9c0.4-0.2,0.8-0.3,1.3-0.3c1.1,0,1.8,0.4,2.2,1.1c0.2,0.4,0.3,1,0.3,1.7v5.2h-1.4v-5.4c0-0.5-0.1-0.9-0.4-1.1
		c-0.3-0.2-0.6-0.3-1-0.3c-0.5,0-1,0.2-1.3,0.5c-0.4,0.3-0.6,0.9-0.6,1.7v4.6H388v-5.1c0-0.5-0.1-0.9-0.2-1.2
		c-0.2-0.4-0.6-0.5-1.1-0.5c-0.5,0-1,0.2-1.4,0.6c-0.4,0.4-0.6,1.1-0.6,2.1v4.2h-1.3V452z"/>
</g>
<g>
	<path d="M90.4,478.5c0.1,0.8,0.4,1.3,1,1.6c0.3,0.1,0.7,0.2,1.1,0.2c0.8,0,1.4-0.2,1.7-0.7s0.6-1,0.6-1.7c0-0.7-0.2-1.3-0.7-1.7
		c-0.4-0.4-1-0.6-1.6-0.6c-0.5,0-0.8,0.1-1.2,0.3s-0.6,0.4-0.8,0.7l-1.1-0.1l0.8-5.6h5.4v1.3h-4.5l-0.4,2.9c0.2-0.2,0.5-0.3,0.7-0.4
		c0.4-0.2,0.8-0.2,1.4-0.2c1,0,1.8,0.3,2.4,0.9s1,1.4,1,2.4c0,1-0.3,1.9-0.9,2.6c-0.6,0.8-1.6,1.1-2.9,1.1c-0.9,0-1.6-0.2-2.3-0.7
		c-0.7-0.5-1-1.2-1.1-2.2H90.4z"/>
	<path d="M103.9,472.4c0.5,0.9,0.7,2,0.7,3.6c0,1.4-0.2,2.6-0.6,3.5c-0.6,1.3-1.6,2-3,2c-1.3,0-2.2-0.5-2.8-1.6
		c-0.5-0.9-0.8-2.1-0.8-3.7c0-1.2,0.2-2.2,0.5-3.1c0.6-1.6,1.6-2.4,3.1-2.4C102.3,470.7,103.3,471.3,103.9,472.4z M102.6,479.4
		c0.4-0.6,0.6-1.7,0.6-3.4c0-1.2-0.1-2.2-0.4-2.9c-0.3-0.8-0.9-1.2-1.7-1.2c-0.8,0-1.3,0.4-1.7,1.1c-0.4,0.7-0.5,1.8-0.5,3.2
		c0,1.1,0.1,1.9,0.3,2.6c0.4,1,1,1.5,1.8,1.5C101.6,480.3,102.2,480,102.6,479.4z"/>
	<path d="M106.5,482.7c0.3-0.1,0.6-0.3,0.7-0.7c0.1-0.2,0.1-0.4,0.1-0.6c0,0,0-0.1,0-0.1c0,0,0-0.1,0-0.1h-0.8v-1.6h1.6v1.5
		c0,0.6-0.1,1.1-0.4,1.5s-0.6,0.7-1.2,0.8V482.7z"/>
	<path d="M116.4,472.4c0.5,0.9,0.7,2,0.7,3.6c0,1.4-0.2,2.6-0.6,3.5c-0.6,1.3-1.6,2-3,2c-1.3,0-2.2-0.5-2.8-1.6
		c-0.5-0.9-0.8-2.1-0.8-3.7c0-1.2,0.2-2.2,0.5-3.1c0.6-1.6,1.6-2.4,3.1-2.4C114.8,470.7,115.8,471.3,116.4,472.4z M115.1,479.4
		c0.4-0.6,0.6-1.7,0.6-3.4c0-1.2-0.1-2.2-0.4-2.9c-0.3-0.8-0.9-1.2-1.7-1.2c-0.8,0-1.3,0.4-1.7,1.1c-0.4,0.7-0.5,1.8-0.5,3.2
		c0,1.1,0.1,1.9,0.3,2.6c0.4,1,1,1.5,1.8,1.5C114.1,480.3,114.7,480,115.1,479.4z"/>
	<path d="M124.8,472.4c0.5,0.9,0.7,2,0.7,3.6c0,1.4-0.2,2.6-0.6,3.5c-0.6,1.3-1.6,2-3,2c-1.3,0-2.2-0.5-2.8-1.6
		c-0.5-0.9-0.8-2.1-0.8-3.7c0-1.2,0.2-2.2,0.5-3.1c0.6-1.6,1.6-2.4,3.1-2.4C123.2,470.7,124.2,471.3,124.8,472.4z M123.4,479.4
		c0.4-0.6,0.6-1.7,0.6-3.4c0-1.2-0.1-2.2-0.4-2.9c-0.3-0.8-0.9-1.2-1.7-1.2c-0.8,0-1.3,0.4-1.7,1.1c-0.4,0.7-0.5,1.8-0.5,3.2
		c0,1.1,0.1,1.9,0.3,2.6c0.4,1,1,1.5,1.8,1.5C122.5,480.3,123,480,123.4,479.4z"/>
	<path d="M133.1,472.4c0.5,0.9,0.7,2,0.7,3.6c0,1.4-0.2,2.6-0.6,3.5c-0.6,1.3-1.6,2-3,2c-1.3,0-2.2-0.5-2.8-1.6
		c-0.5-0.9-0.8-2.1-0.8-3.7c0-1.2,0.2-2.2,0.5-3.1c0.6-1.6,1.6-2.4,3.1-2.4C131.5,470.7,132.5,471.3,133.1,472.4z M131.8,479.4
		c0.4-0.6,0.6-1.7,0.6-3.4c0-1.2-0.1-2.2-0.4-2.9c-0.3-0.8-0.9-1.2-1.7-1.2c-0.8,0-1.3,0.4-1.7,1.1c-0.4,0.7-0.5,1.8-0.5,3.2
		c0,1.1,0.1,1.9,0.3,2.6c0.4,1,1,1.5,1.8,1.5C130.8,480.3,131.4,480,131.8,479.4z"/>
</g>
<g>
	<path d="M365,472.4c0.5,0.6,0.7,1.2,0.7,1.9h-1.3c-0.1-0.4-0.2-0.7-0.4-1c-0.3-0.4-0.8-0.7-1.4-0.7c-0.7,0-1.3,0.3-1.8,1
		c-0.4,0.7-0.7,1.7-0.7,2.9c0.3-0.4,0.7-0.8,1.1-1c0.4-0.2,0.9-0.3,1.4-0.3c0.9,0,1.6,0.3,2.3,0.8c0.7,0.6,1,1.4,1,2.5
		c0,1-0.3,1.8-0.9,2.5c-0.6,0.7-1.5,1.1-2.7,1.1c-1,0-1.8-0.4-2.5-1.1c-0.7-0.7-1.1-2-1.1-3.8c0-1.3,0.2-2.4,0.5-3.3
		c0.6-1.7,1.7-2.6,3.3-2.6C363.7,471.5,364.5,471.8,365,472.4z M364,480.4c0.3-0.5,0.5-1,0.5-1.7c0-0.5-0.2-1-0.5-1.5
		c-0.3-0.5-0.9-0.7-1.7-0.7c-0.6,0-1.1,0.2-1.5,0.6c-0.4,0.4-0.6,0.9-0.6,1.7c0,0.7,0.2,1.2,0.6,1.7c0.4,0.5,0.9,0.7,1.6,0.7
		C363.1,481.1,363.6,480.9,364,480.4z"/>
	<path d="M373.5,473.2c0.5,0.9,0.7,2,0.7,3.6c0,1.4-0.2,2.6-0.6,3.5c-0.6,1.3-1.6,2-3,2c-1.3,0-2.2-0.5-2.8-1.6
		c-0.5-0.9-0.8-2.1-0.8-3.7c0-1.2,0.2-2.2,0.5-3.1c0.6-1.6,1.6-2.4,3.1-2.4C371.9,471.5,372.9,472.1,373.5,473.2z M372.2,480.2
		c0.4-0.6,0.6-1.7,0.6-3.4c0-1.2-0.1-2.2-0.4-2.9c-0.3-0.8-0.9-1.2-1.7-1.2c-0.8,0-1.3,0.4-1.7,1.1c-0.4,0.7-0.5,1.8-0.5,3.2
		c0,1.1,0.1,1.9,0.3,2.6c0.4,1,1,1.5,1.8,1.5C371.2,481.1,371.8,480.8,372.2,480.2z"/>
	<path d="M381.8,473.2c0.5,0.9,0.7,2,0.7,3.6c0,1.4-0.2,2.6-0.6,3.5c-0.6,1.3-1.6,2-3,2c-1.3,0-2.2-0.5-2.8-1.6
		c-0.5-0.9-0.8-2.1-0.8-3.7c0-1.2,0.2-2.2,0.5-3.1c0.6-1.6,1.6-2.4,3.1-2.4C380.2,471.5,381.2,472.1,381.8,473.2z M380.5,480.2
		c0.4-0.6,0.6-1.7,0.6-3.4c0-1.2-0.1-2.2-0.4-2.9c-0.3-0.8-0.9-1.2-1.7-1.2c-0.8,0-1.3,0.4-1.7,1.1c-0.4,0.7-0.5,1.8-0.5,3.2
		c0,1.1,0.1,1.9,0.3,2.6c0.4,1,1,1.5,1.8,1.5C379.5,481.1,380.1,480.8,380.5,480.2z"/>
	<path d="M390.2,473.2c0.5,0.9,0.7,2,0.7,3.6c0,1.4-0.2,2.6-0.6,3.5c-0.6,1.3-1.6,2-3,2c-1.3,0-2.2-0.5-2.8-1.6
		c-0.5-0.9-0.8-2.1-0.8-3.7c0-1.2,0.2-2.2,0.5-3.1c0.6-1.6,1.6-2.4,3.1-2.4C388.6,471.5,389.6,472.1,390.2,473.2z M388.8,480.2
		c0.4-0.6,0.6-1.7,0.6-3.4c0-1.2-0.1-2.2-0.4-2.9c-0.3-0.8-0.9-1.2-1.7-1.2c-0.8,0-1.3,0.4-1.7,1.1c-0.4,0.7-0.5,1.8-0.5,3.2
		c0,1.1,0.1,1.9,0.3,2.6c0.4,1,1,1.5,1.8,1.5C387.9,481.1,388.4,480.8,388.8,480.2z"/>
</g>
<g>
	<path d="M462.2,481.3c-0.6-0.7-0.8-1.5-0.8-2.5h1.4c0.1,0.7,0.2,1.2,0.4,1.5c0.3,0.6,1,0.8,1.9,0.8c0.7,0,1.2-0.2,1.7-0.6
		c0.4-0.4,0.6-0.8,0.6-1.4c0-0.7-0.2-1.2-0.7-1.5c-0.4-0.3-1.1-0.4-1.8-0.4c-0.1,0-0.2,0-0.3,0c-0.1,0-0.2,0-0.3,0V476
		c0.1,0,0.3,0,0.3,0s0.2,0,0.3,0c0.5,0,0.9-0.1,1.2-0.2c0.6-0.3,0.8-0.8,0.8-1.5c0-0.5-0.2-0.9-0.6-1.2s-0.8-0.4-1.3-0.4
		c-0.9,0-1.5,0.3-1.8,0.9c-0.2,0.3-0.3,0.8-0.3,1.4h-1.3c0-0.8,0.2-1.4,0.5-2c0.5-1,1.5-1.5,2.8-1.5c1.1,0,1.9,0.2,2.5,0.7
		c0.6,0.5,0.9,1.2,0.9,2.1c0,0.6-0.2,1.2-0.5,1.6c-0.2,0.2-0.5,0.4-0.8,0.6c0.6,0.2,1,0.4,1.3,0.9c0.3,0.4,0.5,1,0.5,1.6
		c0,1-0.3,1.8-1,2.4c-0.7,0.6-1.6,0.9-2.8,0.9C463.7,482.3,462.8,482,462.2,481.3z"/>
	<path d="M476.3,473.2c0.5,0.9,0.7,2,0.7,3.6c0,1.4-0.2,2.6-0.6,3.5c-0.6,1.3-1.6,2-3,2c-1.3,0-2.2-0.5-2.8-1.6
		c-0.5-0.9-0.8-2.1-0.8-3.7c0-1.2,0.2-2.2,0.5-3.1c0.6-1.6,1.6-2.4,3.1-2.4C474.8,471.5,475.7,472.1,476.3,473.2z M475,480.2
		c0.4-0.6,0.6-1.7,0.6-3.4c0-1.2-0.1-2.2-0.4-2.9c-0.3-0.8-0.9-1.2-1.7-1.2c-0.8,0-1.3,0.4-1.7,1.1c-0.4,0.7-0.5,1.8-0.5,3.2
		c0,1.1,0.1,1.9,0.3,2.6c0.4,1,1,1.5,1.8,1.5C474.1,481.1,474.6,480.8,475,480.2z"/>
	<path d="M484.7,473.2c0.5,0.9,0.7,2,0.7,3.6c0,1.4-0.2,2.6-0.6,3.5c-0.6,1.3-1.6,2-3,2c-1.3,0-2.2-0.5-2.8-1.6
		c-0.5-0.9-0.8-2.1-0.8-3.7c0-1.2,0.2-2.2,0.5-3.1c0.6-1.6,1.6-2.4,3.1-2.4C483.1,471.5,484.1,472.1,484.7,473.2z M483.4,480.2
		c0.4-0.6,0.6-1.7,0.6-3.4c0-1.2-0.1-2.2-0.4-2.9c-0.3-0.8-0.9-1.2-1.7-1.2c-0.8,0-1.3,0.4-1.7,1.1c-0.4,0.7-0.5,1.8-0.5,3.2
		c0,1.1,0.1,1.9,0.3,2.6c0.4,1,1,1.5,1.8,1.5C482.4,481.1,483,480.8,483.4,480.2z"/>
	<path d="M493,473.2c0.5,0.9,0.7,2,0.7,3.6c0,1.4-0.2,2.6-0.6,3.5c-0.6,1.3-1.6,2-3,2c-1.3,0-2.2-0.5-2.8-1.6
		c-0.5-0.9-0.8-2.1-0.8-3.7c0-1.2,0.2-2.2,0.5-3.1c0.6-1.6,1.6-2.4,3.1-2.4C491.4,471.5,492.4,472.1,493,473.2z M491.7,480.2
		c0.4-0.6,0.6-1.7,0.6-3.4c0-1.2-0.1-2.2-0.4-2.9c-0.3-0.8-0.9-1.2-1.7-1.2c-0.8,0-1.3,0.4-1.7,1.1c-0.4,0.7-0.5,1.8-0.5,3.2
		c0,1.1,0.1,1.9,0.3,2.6c0.4,1,1,1.5,1.8,1.5C490.7,481.1,491.3,480.8,491.7,480.2z"/>
</g>
<linearGradient id="SVGID_1_" gradientUnits="userSpaceOnUse" x1="100.5996" y1="237.2371" x2="484.2122" y2="237.2371" gradientTransform="matrix(1.4455 -0.4443 -0.4443 1.4431 -25.3117 25.2564)">
	<stop  offset="0" style="stop-color:#0000FF"/>
	<stop  offset="5.836795e-02" style="stop-color:#0404FF"/>
	<stop  offset="0.1209" style="stop-color:#1111FF"/>
	<stop  offset="0.1854" style="stop-color:#2727FF"/>
	<stop  offset="0.2513" style="stop-color:#4545FF"/>
	<stop  offset="0.3182" style="stop-color:#6B6BFF"/>
	<stop  offset="0.386" style="stop-color:#9B9BFF"/>
	<stop  offset="0.4532" style="stop-color:#D2D2FF"/>
	<stop  offset="0.5026" style="stop-color:#FFFFFF"/>
	<stop  offset="0.715" style="stop-color:#FFFF00"/>
	<stop  offset="0.7392" style="stop-color:#FFF600"/>
	<stop  offset="0.7787" style="stop-color:#FFDE00"/>
	<stop  offset="0.8286" style="stop-color:#FFB600"/>
	<stop  offset="0.8869" style="stop-color:#FF7F00"/>
	<stop  offset="0.9515" style="stop-color:#FF3900"/>
	<stop  offset="1" style="stop-color:#FF0000"/>
</linearGradient>
<polygon class="st1" points="475.5,432.5 97.6,53.6 108.4,42.9 486.3,421.8 "/>
<path class="st2" d="M104,49.1l375.1,375.8L104,49.1z"/>
<rect x="-6.9" class="st3" width="546.6" height="514.3"/>
<g>
	<path d="M388.8,308.5v-1c1-0.1,1.6-0.2,2-0.5s0.7-0.7,0.8-1.5h1V316h-1.4v-7.4H388.8z"/>
	<path d="M401,305.2h2.1l3.1,9.1l3.1-9.1h2.1V316h-1.4v-6.3c0-0.2,0-0.6,0-1.1c0-0.5,0-1.1,0-1.6l-3.1,9.1h-1.4l-3.1-9.1v0.3
		c0,0.3,0,0.7,0,1.2s0,0.9,0,1.2v6.3H401V305.2z"/>
	<path d="M419.4,321.3c-3,0-5.4-2.4-5.4-5.4c0-3,2.4-5.4,5.4-5.4c3,0,5.4,2.4,5.4,5.4C424.8,318.9,422.4,321.3,419.4,321.3z
		 M424.3,315.9c0-2.7-2.2-4.9-4.9-4.9c-2.7,0-4.9,2.2-4.9,4.9c0,2.7,2.2,4.9,4.9,4.9C422.1,320.8,424.3,318.6,424.3,315.9z
		 M419.4,316.9c-0.6,0-1-0.5-1-1c0-0.5,0.4-1,1-1c0.6,0,1,0.5,1,1C420.4,316.5,420,316.9,419.4,316.9z"/>
</g>
<g>
	<path d="M494.2,409.3c0.5,0.9,0.7,2,0.7,3.6c0,1.4-0.2,2.6-0.6,3.5c-0.6,1.3-1.6,2-3,2c-1.3,0-2.2-0.5-2.8-1.6
		c-0.5-0.9-0.8-2.1-0.8-3.7c0-1.2,0.2-2.2,0.5-3.1c0.6-1.6,1.6-2.4,3.1-2.4C492.6,407.7,493.6,408.2,494.2,409.3z M492.8,416.3
		c0.4-0.6,0.6-1.7,0.6-3.4c0-1.2-0.1-2.2-0.4-2.9c-0.3-0.8-0.9-1.2-1.7-1.2c-0.8,0-1.3,0.4-1.7,1.1c-0.4,0.7-0.5,1.8-0.5,3.2
		c0,1.1,0.1,1.9,0.3,2.6c0.4,1,1,1.5,1.8,1.5C491.9,417.2,492.4,416.9,492.8,416.3z"/>
	<path d="M496.8,416.6h1.5v1.6h-1.5V416.6z"/>
	<path d="M501.1,410.7v-1c1-0.1,1.6-0.2,2-0.5c0.4-0.2,0.7-0.7,0.8-1.5h1v10.4h-1.4v-7.4H501.1z"/>
	<path d="M513.3,407.4h2.1l3.1,9.1l3.1-9.1h2.1v10.8h-1.4v-6.3c0-0.2,0-0.6,0-1.1c0-0.5,0-1.1,0-1.6l-3.1,9.1h-1.4l-3.1-9.1v0.3
		c0,0.3,0,0.7,0,1.2c0,0.5,0,0.9,0,1.2v6.3h-1.4V407.4z"/>
	<path d="M531.7,423.5c-3,0-5.4-2.4-5.4-5.4c0-3,2.4-5.4,5.4-5.4c3,0,5.4,2.4,5.4,5.4C537.1,421.1,534.7,423.5,531.7,423.5z
		 M536.6,418.1c0-2.7-2.2-4.9-4.9-4.9c-2.7,0-4.9,2.2-4.9,4.9c0,2.7,2.2,4.9,4.9,4.9C534.4,423,536.6,420.8,536.6,418.1z
		 M531.7,419.1c-0.6,0-1-0.5-1-1c0-0.5,0.4-1,1-1c0.6,0,1,0.5,1,1C532.8,418.6,532.3,419.1,531.7,419.1z"/>
</g>
<g>
	<path d="M123.2,39v-1c1-0.1,1.6-0.2,2-0.5s0.7-0.7,0.8-1.5h1v10.4h-1.4V39H123.2z"/>
	<path d="M137.1,37.6c0.5,0.9,0.7,2,0.7,3.6c0,1.4-0.2,2.6-0.6,3.5c-0.6,1.3-1.6,2-3,2c-1.3,0-2.2-0.5-2.8-1.6
		c-0.5-0.9-0.8-2.1-0.8-3.7c0-1.2,0.2-2.2,0.5-3.1c0.6-1.6,1.6-2.4,3.1-2.4C135.5,35.9,136.5,36.5,137.1,37.6z M135.8,44.6
		c0.4-0.6,0.6-1.7,0.6-3.4c0-1.2-0.1-2.2-0.4-2.9c-0.3-0.8-0.9-1.2-1.7-1.2c-0.8,0-1.3,0.4-1.7,1.1c-0.4,0.7-0.5,1.8-0.5,3.2
		c0,1.1,0.1,1.9,0.3,2.6c0.4,1,1,1.5,1.8,1.5C134.8,45.5,135.4,45.2,135.8,44.6z"/>
	<path d="M145.4,37.6c0.5,0.9,0.7,2,0.7,3.6c0,1.4-0.2,2.6-0.6,3.5c-0.6,1.3-1.6,2-3,2c-1.3,0-2.2-0.5-2.8-1.6
		c-0.5-0.9-0.8-2.1-0.8-3.7c0-1.2,0.2-2.2,0.5-3.1c0.6-1.6,1.6-2.4,3.1-2.4C143.8,35.9,144.8,36.5,145.4,37.6z M144.1,44.6
		c0.4-0.6,0.6-1.7,0.6-3.4c0-1.2-0.1-2.2-0.4-2.9c-0.3-0.8-0.9-1.2-1.7-1.2c-0.8,0-1.3,0.4-1.7,1.1c-0.4,0.7-0.5,1.8-0.5,3.2
		c0,1.1,0.1,1.9,0.3,2.6c0.4,1,1,1.5,1.8,1.5C143.2,45.5,143.7,45.2,144.1,44.6z"/>
	<path d="M152,35.6h2.1l3.1,9.1l3.1-9.1h2.1v10.8H161V40c0-0.2,0-0.6,0-1.1s0-1.1,0-1.6l-3.1,9.1h-1.4l-3.1-9.1v0.3
		c0,0.3,0,0.7,0,1.2s0,0.9,0,1.2v6.4H152V35.6z"/>
	<path d="M170.5,51.8c-3,0-5.4-2.4-5.4-5.4c0-3,2.4-5.4,5.4-5.4c3,0,5.4,2.4,5.4,5.4C175.9,49.3,173.5,51.8,170.5,51.8z M175.3,46.3
		c0-2.7-2.2-4.9-4.9-4.9c-2.7,0-4.9,2.2-4.9,4.9c0,2.7,2.2,4.9,4.9,4.9C173.1,51.2,175.3,49,175.3,46.3z M170.5,47.4
		c-0.6,0-1-0.5-1-1c0-0.5,0.4-1,1-1c0.6,0,1,0.5,1,1C171.5,46.9,171.1,47.4,170.5,47.4z"/>
</g>
<g>
	<path d="M178.3,101.8c0.3-0.7,1-1.3,1.9-1.8l1.4-0.8c0.6-0.4,1.1-0.7,1.3-0.9c0.4-0.4,0.6-0.9,0.6-1.4c0-0.6-0.2-1.1-0.5-1.5
		c-0.4-0.4-0.9-0.5-1.5-0.5c-0.9,0-1.5,0.3-1.9,1c-0.2,0.4-0.3,0.9-0.3,1.5H178c0-0.9,0.2-1.7,0.5-2.2c0.6-1,1.6-1.5,3-1.5
		c1.2,0,2.1,0.3,2.6,1c0.6,0.6,0.8,1.4,0.8,2.2c0,0.8-0.3,1.6-0.9,2.2c-0.3,0.3-1,0.8-1.8,1.3l-1,0.6c-0.5,0.3-0.9,0.5-1.1,0.8
		c-0.5,0.4-0.8,0.9-0.9,1.4h5.7v1.2h-7.2C177.7,103.3,177.9,102.5,178.3,101.8z"/>
	<path d="M187.4,101.5c0.1,0.8,0.4,1.3,1,1.6c0.3,0.1,0.7,0.2,1.1,0.2c0.8,0,1.4-0.2,1.7-0.7s0.6-1,0.6-1.7c0-0.7-0.2-1.3-0.7-1.7
		c-0.4-0.4-1-0.6-1.6-0.6c-0.5,0-0.8,0.1-1.2,0.3s-0.6,0.4-0.8,0.7l-1.1-0.1l0.8-5.6h5.4v1.3h-4.5l-0.4,2.9c0.2-0.2,0.5-0.3,0.7-0.4
		c0.4-0.2,0.8-0.2,1.4-0.2c1,0,1.8,0.3,2.4,0.9s1,1.4,1,2.4c0,1-0.3,1.9-0.9,2.6c-0.6,0.8-1.6,1.1-2.9,1.1c-0.9,0-1.6-0.2-2.3-0.7
		c-0.7-0.5-1-1.2-1.1-2.2H187.4z"/>
	<path d="M199.2,93.4h2.1l3.1,9.1l3.1-9.1h2.1v10.8h-1.4v-6.4c0-0.2,0-0.6,0-1.1s0-1.1,0-1.6l-3.1,9.1h-1.4l-3.1-9.1v0.3
		c0,0.3,0,0.7,0,1.2s0,0.9,0,1.2v6.4h-1.4V93.4z"/>
	<path d="M217.6,109.6c-3,0-5.4-2.4-5.4-5.4c0-3,2.4-5.4,5.4-5.4c3,0,5.4,2.4,5.4,5.4C223,107.1,220.6,109.6,217.6,109.6z
		 M222.5,104.2c0-2.7-2.2-4.9-4.9-4.9c-2.7,0-4.9,2.2-4.9,4.9c0,2.7,2.2,4.9,4.9,4.9C220.3,109,222.5,106.9,222.5,104.2z
		 M217.6,105.2c-0.6,0-1-0.5-1-1c0-0.5,0.4-1,1-1c0.6,0,1,0.5,1,1C218.7,104.7,218.2,105.2,217.6,105.2z"/>
</g>
<g>
	<path d="M291,214.4c-0.6-0.7-0.8-1.5-0.8-2.5h1.4c0.1,0.7,0.2,1.2,0.4,1.5c0.3,0.6,1,0.8,1.9,0.8c0.7,0,1.2-0.2,1.7-0.6
		s0.6-0.8,0.6-1.4c0-0.7-0.2-1.2-0.7-1.5c-0.4-0.3-1.1-0.4-1.8-0.4c-0.1,0-0.2,0-0.3,0c-0.1,0-0.2,0-0.3,0v-1.2c0.1,0,0.2,0,0.3,0
		c0.1,0,0.2,0,0.3,0c0.5,0,0.9-0.1,1.2-0.2c0.6-0.3,0.8-0.8,0.8-1.5c0-0.5-0.2-0.9-0.6-1.2s-0.8-0.4-1.3-0.4c-0.9,0-1.5,0.3-1.8,0.9
		c-0.2,0.3-0.3,0.8-0.3,1.4h-1.3c0-0.8,0.2-1.4,0.5-2c0.5-1,1.5-1.5,2.8-1.5c1.1,0,1.9,0.2,2.5,0.7c0.6,0.5,0.9,1.2,0.9,2.1
		c0,0.6-0.2,1.2-0.5,1.6c-0.2,0.2-0.5,0.4-0.8,0.6c0.6,0.2,1,0.4,1.3,0.9c0.3,0.4,0.5,1,0.5,1.6c0,1-0.3,1.8-1,2.4
		c-0.7,0.6-1.6,0.9-2.8,0.9C292.5,215.4,291.6,215.1,291,214.4z"/>
	<path d="M303.4,204.4h2.1l3.1,9.1l3.1-9.1h2.1v10.8h-1.4v-6.4c0-0.2,0-0.6,0-1.1c0-0.5,0-1.1,0-1.6l-3.1,9.1h-1.4l-3.1-9.1v0.3
		c0,0.3,0,0.7,0,1.2s0,0.9,0,1.2v6.4h-1.4V204.4z"/>
	<path d="M321.9,220.5c-3,0-5.4-2.4-5.4-5.4c0-3,2.4-5.4,5.4-5.4c3,0,5.4,2.4,5.4,5.4C327.3,218.1,324.9,220.5,321.9,220.5z
		 M326.7,215.1c0-2.7-2.2-4.9-4.9-4.9c-2.7,0-4.9,2.2-4.9,4.9c0,2.7,2.2,4.9,4.9,4.9C324.5,220,326.7,217.8,326.7,215.1z
		 M321.9,216.1c-0.6,0-1-0.5-1-1c0-0.5,0.4-1,1-1c0.6,0,1,0.5,1,1C322.9,215.6,322.5,216.1,321.9,216.1z"/>
</g>
<g>
	<path d="M228.8,149.2c-0.4-0.4-0.6-0.9-0.6-1.5c0-0.8,0.3-1.5,0.8-2s1.4-0.8,2.4-0.8c1,0,1.8,0.3,2.4,0.8c0.6,0.5,0.9,1.1,0.9,1.9
		c0,0.7-0.2,1.2-0.5,1.6c-0.2,0.2-0.5,0.5-0.9,0.7c0.4,0.2,0.8,0.4,1,0.7c0.5,0.5,0.7,1.1,0.7,1.9c0,0.9-0.3,1.7-0.9,2.3
		c-0.6,0.6-1.5,1-2.6,1c-1,0-1.9-0.3-2.6-0.8c-0.7-0.6-1.1-1.4-1.1-2.4c0-0.6,0.2-1.2,0.5-1.6s0.8-0.8,1.3-1
		C229.3,149.6,229,149.4,228.8,149.2z M233,153.9c0.4-0.3,0.6-0.8,0.6-1.5c0-0.7-0.2-1.2-0.6-1.5s-0.9-0.5-1.6-0.5
		c-0.6,0-1.1,0.2-1.5,0.5c-0.4,0.4-0.6,0.9-0.6,1.5c0,0.5,0.2,1,0.5,1.4c0.4,0.4,0.9,0.6,1.7,0.6C232.1,154.4,232.6,154.2,233,153.9
		z M232.8,148.7c0.3-0.3,0.5-0.7,0.5-1.2c0-0.4-0.2-0.8-0.5-1.1c-0.3-0.3-0.8-0.5-1.4-0.5c-0.6,0-1.1,0.2-1.4,0.5
		c-0.3,0.3-0.4,0.7-0.4,1.2c0,0.5,0.2,0.9,0.5,1.2c0.4,0.3,0.8,0.4,1.3,0.4C232,149.2,232.5,149,232.8,148.7z"/>
	<path d="M236.8,144.5h2.1l3.1,9.1l3.1-9.1h2.1v10.8h-1.4v-6.4c0-0.2,0-0.6,0-1.1s0-1.1,0-1.6l-3.1,9.1h-1.4l-3.1-9.1v0.3
		c0,0.3,0,0.7,0,1.2s0,0.9,0,1.2v6.4h-1.4V144.5z"/>
	<path d="M255.2,160.7c-3,0-5.4-2.4-5.4-5.4c0-3,2.4-5.4,5.4-5.4c3,0,5.4,2.4,5.4,5.4C260.6,158.2,258.2,160.7,255.2,160.7z
		 M260.1,155.2c0-2.7-2.2-4.9-4.9-4.9c-2.7,0-4.9,2.2-4.9,4.9c0,2.7,2.2,4.9,4.9,4.9C257.9,160.1,260.1,157.9,260.1,155.2z
		 M255.2,156.3c-0.6,0-1-0.5-1-1c0-0.5,0.4-1,1-1c0.6,0,1,0.5,1,1C256.3,155.8,255.8,156.3,255.2,156.3z"/>
</g>
<g>
	<path d="M435.4,348.2c0.5,0.9,0.7,2,0.7,3.6c0,1.4-0.2,2.6-0.6,3.5c-0.6,1.3-1.6,2-3,2c-1.3,0-2.2-0.5-2.8-1.6
		c-0.5-0.9-0.8-2.1-0.8-3.7c0-1.2,0.2-2.2,0.5-3.1c0.6-1.6,1.6-2.4,3.1-2.4C433.8,346.5,434.8,347,435.4,348.2z M434,355.1
		c0.4-0.6,0.6-1.7,0.6-3.4c0-1.2-0.1-2.2-0.4-2.9c-0.3-0.8-0.9-1.2-1.7-1.2c-0.8,0-1.3,0.4-1.7,1.1c-0.4,0.7-0.5,1.8-0.5,3.2
		c0,1.1,0.1,1.9,0.3,2.6c0.4,1,1,1.5,1.8,1.5C433.1,356.1,433.6,355.8,434,355.1z"/>
	<path d="M438,355.4h1.5v1.6H438V355.4z"/>
	<path d="M442.7,354.3c0.1,0.8,0.4,1.3,1,1.6c0.3,0.1,0.7,0.2,1.1,0.2c0.8,0,1.4-0.2,1.7-0.7c0.4-0.5,0.6-1,0.6-1.7
		c0-0.7-0.2-1.3-0.7-1.7c-0.4-0.4-1-0.6-1.6-0.6c-0.5,0-0.8,0.1-1.2,0.3c-0.3,0.2-0.6,0.4-0.8,0.7l-1.1-0.1l0.8-5.6h5.4v1.3h-4.5
		l-0.4,2.9c0.2-0.2,0.5-0.3,0.7-0.4c0.4-0.2,0.8-0.2,1.4-0.2c1,0,1.8,0.3,2.4,0.9s1,1.4,1,2.4c0,1-0.3,1.9-0.9,2.6
		c-0.6,0.8-1.6,1.1-2.9,1.1c-0.9,0-1.6-0.2-2.3-0.7c-0.7-0.5-1-1.2-1.1-2.2H442.7z"/>
	<path d="M454.5,346.2h2.1l3.1,9.1l3.1-9.1h2.1V357h-1.4v-6.3c0-0.2,0-0.6,0-1.1c0-0.5,0-1.1,0-1.6l-3.1,9.1h-1.4l-3.1-9.1v0.3
		c0,0.3,0,0.7,0,1.2c0,0.5,0,0.9,0,1.2v6.3h-1.4V346.2z"/>
	<path d="M472.9,362.3c-3,0-5.4-2.4-5.4-5.4c0-3,2.4-5.4,5.4-5.4c3,0,5.4,2.4,5.4,5.4C478.3,359.9,475.9,362.3,472.9,362.3z
		 M477.8,356.9c0-2.7-2.2-4.9-4.9-4.9c-2.7,0-4.9,2.2-4.9,4.9c0,2.7,2.2,4.9,4.9,4.9C475.6,361.8,477.8,359.6,477.8,356.9z
		 M472.9,358c-0.6,0-1-0.5-1-1c0-0.5,0.4-1,1-1c0.6,0,1,0.5,1,1C474,357.5,473.5,358,472.9,358z"/>
</g>
<g>
	<path d="M349.4,274.6c0.3-0.7,1-1.3,1.9-1.8l1.4-0.8c0.6-0.4,1.1-0.7,1.3-0.9c0.4-0.4,0.6-0.9,0.6-1.4c0-0.6-0.2-1.1-0.5-1.5
		c-0.4-0.4-0.9-0.5-1.5-0.5c-0.9,0-1.5,0.3-1.9,1c-0.2,0.4-0.3,0.9-0.3,1.5h-1.3c0-0.9,0.2-1.7,0.5-2.2c0.6-1,1.6-1.5,3-1.5
		c1.2,0,2.1,0.3,2.6,1c0.6,0.6,0.8,1.4,0.8,2.2c0,0.8-0.3,1.6-0.9,2.2c-0.3,0.3-1,0.8-1.8,1.3l-1,0.6c-0.5,0.3-0.9,0.5-1.1,0.8
		c-0.5,0.4-0.8,0.9-0.9,1.4h5.7v1.2h-7.2C348.9,276.1,349,275.3,349.4,274.6z"/>
	<path d="M361.9,266.2h2.1l3.1,9.1l3.1-9.1h2.1V277h-1.4v-6.4c0-0.2,0-0.6,0-1.1c0-0.5,0-1.1,0-1.6l-3.1,9.1h-1.4l-3.1-9.1v0.3
		c0,0.3,0,0.7,0,1.2s0,0.9,0,1.2v6.4h-1.4V266.2z"/>
	<path d="M380.4,282.3c-3,0-5.4-2.4-5.4-5.4c0-3,2.4-5.4,5.4-5.4c3,0,5.4,2.4,5.4,5.4C385.8,279.9,383.4,282.3,380.4,282.3z
		 M385.2,276.9c0-2.7-2.2-4.9-4.9-4.9c-2.7,0-4.9,2.2-4.9,4.9c0,2.7,2.2,4.9,4.9,4.9C383,281.8,385.2,279.6,385.2,276.9z M380.4,278
		c-0.6,0-1-0.5-1-1c0-0.5,0.4-1,1-1c0.6,0,1,0.5,1,1C381.4,277.5,381,278,380.4,278z"/>
</g>
<g>
	<path d="M168.5,243.3h2.1l3.1,9.1l3.1-9.1h2.1v10.8h-1.4v-6.4c0-0.2,0-0.6,0-1.1s0-1.1,0-1.6l-3.1,9.1h-1.4l-3.1-9.1v0.3
		c0,0.3,0,0.7,0,1.2s0,0.9,0,1.2v6.4h-1.4V243.3z"/>
	<path d="M185,249.3c0.3,0,0.5-0.2,0.6-0.4c0.1-0.1,0.1-0.3,0.1-0.5c0-0.5-0.2-0.8-0.5-1c-0.3-0.2-0.8-0.3-1.4-0.3
		c-0.7,0-1.2,0.2-1.5,0.6c-0.2,0.2-0.3,0.5-0.3,0.9h-1.2c0-1,0.3-1.6,0.9-2c0.6-0.4,1.3-0.6,2.1-0.6c0.9,0,1.7,0.2,2.2,0.5
		c0.6,0.4,0.9,0.9,0.9,1.6v4.5c0,0.1,0,0.2,0.1,0.3c0.1,0.1,0.2,0.1,0.4,0.1c0.1,0,0.1,0,0.2,0c0.1,0,0.2,0,0.2,0v1
		c-0.2,0.1-0.4,0.1-0.5,0.1s-0.3,0-0.4,0c-0.5,0-0.8-0.2-1-0.5c-0.1-0.2-0.2-0.4-0.2-0.7c-0.3,0.4-0.7,0.7-1.2,0.9s-1.1,0.4-1.7,0.4
		c-0.7,0-1.3-0.2-1.8-0.7c-0.5-0.4-0.7-1-0.7-1.7c0-0.7,0.2-1.3,0.7-1.7s1-0.6,1.8-0.7L185,249.3z M182.2,252.9
		c0.3,0.2,0.6,0.3,1,0.3c0.5,0,0.9-0.1,1.3-0.3c0.7-0.4,1.1-0.9,1.1-1.7v-1.1c-0.2,0.1-0.4,0.2-0.6,0.3c-0.3,0.1-0.5,0.1-0.7,0.1
		l-0.8,0.1c-0.5,0.1-0.8,0.2-1.1,0.3c-0.4,0.2-0.6,0.6-0.6,1.1C181.8,252.4,182,252.7,182.2,252.9z"/>
	<path d="M189.1,243.3h1.3v1.5h-1.3V243.3z M189.1,246.3h1.3v7.8h-1.3V246.3z"/>
	<path d="M192.5,246.2h1.3v1.1c0.4-0.5,0.8-0.8,1.2-1s0.9-0.3,1.4-0.3c1.1,0,1.9,0.4,2.3,1.2c0.2,0.4,0.3,1,0.3,1.8v5h-1.3v-4.9
		c0-0.5-0.1-0.9-0.2-1.2c-0.2-0.5-0.7-0.7-1.3-0.7c-0.3,0-0.6,0-0.8,0.1c-0.4,0.1-0.7,0.3-1,0.6c-0.2,0.3-0.4,0.5-0.4,0.8
		c-0.1,0.3-0.1,0.7-0.1,1.2v4.1h-1.3V246.2z"/>
	<path d="M206.1,250.6c0,0.6,0.2,1.1,0.4,1.5c0.5,0.7,1.3,1.1,2.5,1.1c0.5,0,1-0.1,1.4-0.2c0.8-0.3,1.3-0.8,1.3-1.6
		c0-0.6-0.2-1-0.5-1.3c-0.4-0.2-0.9-0.5-1.7-0.6l-1.4-0.3c-0.9-0.2-1.6-0.5-2-0.7c-0.7-0.4-1-1.1-1-2c0-1,0.3-1.8,1-2.4
		s1.6-0.9,2.8-0.9c1.1,0,2,0.3,2.8,0.8c0.8,0.5,1.2,1.4,1.2,2.6h-1.4c-0.1-0.6-0.2-1-0.4-1.3c-0.4-0.6-1.1-0.8-2.2-0.8
		c-0.8,0-1.4,0.2-1.8,0.5s-0.5,0.8-0.5,1.3c0,0.5,0.2,0.9,0.6,1.2c0.3,0.2,0.9,0.4,1.9,0.6l1.5,0.3c0.7,0.2,1.2,0.4,1.6,0.7
		c0.7,0.5,1,1.2,1,2.2c0,1.2-0.4,2-1.3,2.6s-1.8,0.8-2.9,0.8c-1.3,0-2.3-0.3-3.1-1c-0.7-0.7-1.1-1.6-1.1-2.8H206.1z"/>
	<path d="M219.8,246.5c0.5,0.3,0.9,0.6,1.2,1c0.3,0.4,0.4,0.9,0.5,1.4c0.1,0.4,0.1,0.9,0.1,1.7H216c0,0.8,0.2,1.4,0.6,1.9
		c0.3,0.5,0.9,0.7,1.6,0.7c0.7,0,1.2-0.2,1.6-0.7c0.2-0.3,0.4-0.6,0.5-0.9h1.3c0,0.3-0.1,0.6-0.3,1c-0.2,0.4-0.4,0.6-0.6,0.9
		c-0.4,0.4-0.9,0.7-1.5,0.8c-0.3,0.1-0.7,0.1-1.1,0.1c-1,0-1.8-0.4-2.5-1.1c-0.7-0.7-1-1.7-1-3c0-1.3,0.3-2.3,1-3.1s1.6-1.2,2.7-1.2
		C218.8,246.1,219.3,246.2,219.8,246.5z M220.3,249.5c-0.1-0.6-0.2-1-0.4-1.4c-0.4-0.6-1-1-1.8-1c-0.6,0-1.1,0.2-1.5,0.7
		c-0.4,0.4-0.6,1-0.6,1.7H220.3z"/>
	<path d="M227.8,246.6c0.2,0.2,0.5,0.4,0.7,0.8v-1.1h1.2v11h-1.3v-4c-0.2,0.4-0.5,0.6-0.9,0.8c-0.4,0.2-0.9,0.3-1.5,0.3
		c-0.8,0-1.6-0.3-2.2-1s-1-1.7-1-3c0-1.3,0.3-2.3,0.9-3.1s1.4-1.2,2.4-1.2C226.8,246.1,227.3,246.2,227.8,246.6z M224.5,252
		c0.3,0.8,0.9,1.2,1.8,1.2c0.9,0,1.5-0.4,1.9-1.3c0.2-0.5,0.3-1.1,0.3-1.8c0-0.7-0.1-1.2-0.3-1.7c-0.4-0.8-1-1.2-1.9-1.2
		c-0.6,0-1.1,0.2-1.5,0.7c-0.4,0.5-0.6,1.3-0.6,2.3C224.2,250.9,224.3,251.5,224.5,252z"/>
	<path d="M233,246.2v5.2c0,0.4,0.1,0.7,0.2,1c0.2,0.5,0.7,0.7,1.3,0.7c0.9,0,1.5-0.4,1.8-1.2c0.2-0.4,0.3-1,0.3-1.8v-3.9h1.3v7.8
		h-1.2l0-1.2c-0.2,0.3-0.4,0.5-0.6,0.8c-0.5,0.4-1.1,0.6-1.8,0.6c-1.1,0-1.8-0.4-2.2-1.1c-0.2-0.4-0.3-0.9-0.3-1.6v-5.3H233z"/>
	<path d="M244.9,246.5c0.5,0.3,0.9,0.6,1.2,1c0.3,0.4,0.4,0.9,0.5,1.4c0.1,0.4,0.1,0.9,0.1,1.7H241c0,0.8,0.2,1.4,0.6,1.9
		c0.3,0.5,0.9,0.7,1.6,0.7c0.7,0,1.2-0.2,1.6-0.7c0.2-0.3,0.4-0.6,0.5-0.9h1.3c0,0.3-0.1,0.6-0.3,1c-0.2,0.4-0.4,0.6-0.6,0.9
		c-0.4,0.4-0.9,0.7-1.5,0.8c-0.3,0.1-0.7,0.1-1.1,0.1c-1,0-1.8-0.4-2.5-1.1c-0.7-0.7-1-1.7-1-3c0-1.3,0.3-2.3,1-3.1s1.6-1.2,2.7-1.2
		C243.8,246.1,244.3,246.2,244.9,246.5z M245.3,249.5c-0.1-0.6-0.2-1-0.4-1.4c-0.4-0.6-1-1-1.8-1c-0.6,0-1.1,0.2-1.5,0.7
		c-0.4,0.4-0.6,1-0.6,1.7H245.3z"/>
	<path d="M248.4,246.2h1.3v1.1c0.4-0.5,0.8-0.8,1.2-1s0.9-0.3,1.4-0.3c1.1,0,1.9,0.4,2.3,1.2c0.2,0.4,0.3,1,0.3,1.8v5h-1.3v-4.9
		c0-0.5-0.1-0.9-0.2-1.2c-0.2-0.5-0.7-0.7-1.3-0.7c-0.3,0-0.6,0-0.8,0.1c-0.4,0.1-0.7,0.3-1,0.6c-0.2,0.3-0.4,0.5-0.4,0.8
		c-0.1,0.3-0.1,0.7-0.1,1.2v4.1h-1.3V246.2z"/>
	<path d="M261.9,246.7c0.6,0.4,0.9,1.2,1,2.2h-1.3c-0.1-0.5-0.3-0.9-0.5-1.2s-0.7-0.5-1.3-0.5c-0.8,0-1.4,0.4-1.8,1.2
		c-0.2,0.5-0.4,1.2-0.4,2c0,0.8,0.2,1.4,0.5,2s0.9,0.8,1.6,0.8c0.5,0,1-0.2,1.3-0.5c0.3-0.3,0.5-0.8,0.7-1.4h1.3
		c-0.1,1-0.5,1.8-1.1,2.3s-1.3,0.7-2.2,0.7c-1,0-1.8-0.4-2.5-1.1c-0.6-0.7-0.9-1.7-0.9-2.8c0-1.4,0.3-2.4,1-3.2s1.5-1.1,2.6-1.1
		C260.6,246,261.3,246.2,261.9,246.7z"/>
	<path d="M269.1,246.5c0.5,0.3,0.9,0.6,1.2,1c0.3,0.4,0.4,0.9,0.5,1.4c0.1,0.4,0.1,0.9,0.1,1.7h-5.7c0,0.8,0.2,1.4,0.6,1.9
		c0.3,0.5,0.9,0.7,1.6,0.7c0.7,0,1.2-0.2,1.6-0.7c0.2-0.3,0.4-0.6,0.5-0.9h1.3c0,0.3-0.1,0.6-0.3,1c-0.2,0.4-0.4,0.6-0.6,0.9
		c-0.4,0.4-0.9,0.7-1.5,0.8c-0.3,0.1-0.7,0.1-1.1,0.1c-1,0-1.8-0.4-2.5-1.1c-0.7-0.7-1-1.7-1-3c0-1.3,0.3-2.3,1-3.1s1.6-1.2,2.7-1.2
		C268,246.1,268.5,246.2,269.1,246.5z M269.5,249.5c-0.1-0.6-0.2-1-0.4-1.4c-0.4-0.6-1-1-1.8-1c-0.6,0-1.1,0.2-1.5,0.7
		c-0.4,0.4-0.6,1-0.6,1.7H269.5z"/>
</g>
</svg>
